<mxfile modified="2023-04-25T11:02:52.759Z" host="Electron" agent="Mozilla/5.0 (Windows NT 10.0; Win64; x64) AppleWebKit/537.36 (KHTML, like Gecko) draw.io/21.2.1 Chrome/112.0.5615.87 Electron/24.1.2 Safari/537.36" etag="zdqsMzVfrsjezImJpGdi" version="21.2.1" type="device">
  <diagram id="b_TIV87pcosbFDb4-95I" name="Page-1">
    <mxGraphModel dx="875" dy="518" grid="1" gridSize="10" guides="1" tooltips="1" connect="1" arrows="1" fold="1" page="1" pageScale="1" pageWidth="3300" pageHeight="2339" math="0" shadow="0">
      <root>
        <mxCell id="0" />
        <mxCell id="1" parent="0" />
        <mxCell id="flblZkYbyNQ9tiGkdh4v-29" value="" style="group;strokeWidth=1;align=left;" parent="1" vertex="1" connectable="0">
          <mxGeometry x="2560" y="2080" width="700" height="220" as="geometry" />
        </mxCell>
        <mxCell id="U5MXIK-24vMOK5HsXXuc-69" style="vsdxID=8;edgeStyle=none;startArrow=none;endArrow=none;startSize=5;endSize=5;strokeColor=#000000;spacingTop=0;spacingBottom=0;spacingLeft=0;spacingRight=0;verticalAlign=middle;html=1;labelBackgroundColor=#ffffff;rounded=0;strokeWidth=1;" parent="flblZkYbyNQ9tiGkdh4v-29" edge="1">
          <mxGeometry relative="1" as="geometry">
            <mxPoint as="offset" />
            <Array as="points" />
            <mxPoint as="sourcePoint" />
            <mxPoint x="700" as="targetPoint" />
          </mxGeometry>
        </mxCell>
        <mxCell id="U5MXIK-24vMOK5HsXXuc-68" style="vsdxID=6;edgeStyle=none;startArrow=none;endArrow=none;startSize=5;endSize=5;strokeColor=#000000;spacingTop=0;spacingBottom=0;spacingLeft=0;spacingRight=0;verticalAlign=middle;html=1;labelBackgroundColor=#ffffff;rounded=0;strokeWidth=1;" parent="flblZkYbyNQ9tiGkdh4v-29" edge="1">
          <mxGeometry relative="1" as="geometry">
            <mxPoint x="10" as="offset" />
            <Array as="points" />
            <mxPoint y="220" as="sourcePoint" />
            <mxPoint as="targetPoint" />
          </mxGeometry>
        </mxCell>
        <mxCell id="U5MXIK-24vMOK5HsXXuc-2" value="&lt;p style=&quot;margin-left: 0 ; margin-right: 0 ; margin-top: 0px ; margin-bottom: 0px ; text-indent: 0 ; direction: ltr&quot;&gt;&lt;font style=&quot;font-family: &amp;quot;times new roman&amp;quot; ; color: rgb(0 , 0 , 0) ; direction: ltr ; letter-spacing: 0px ; line-height: 140% ; opacity: 1&quot; size=&quot;1&quot;&gt;&lt;i&gt;Разраб.&lt;/i&gt;&lt;/font&gt;&lt;/p&gt;" style="verticalAlign=middle;align=left;vsdxID=41;fillColor=none;gradientColor=none;shape=stencil(nZBLDoAgDERP0z3SIyjew0SURgSD+Lu9kMZoXLhwN9O+tukAlrNpJg1SzDH4QW/URgNYgZTkjA4UkwJUgGXng+6DX1zLfmoymdXo17xh5zmRJ6Q42BWCfc2oJfdAr+Yv+AP9Cb7OJ3H/2JG1HNGz/84klThPVCc=);strokeColor=none;labelBackgroundColor=none;rounded=0;html=1;whiteSpace=wrap;strokeWidth=1;" parent="flblZkYbyNQ9tiGkdh4v-29" vertex="1">
          <mxGeometry y="100" width="70" height="20" as="geometry" />
        </mxCell>
        <mxCell id="U5MXIK-24vMOK5HsXXuc-4" value="&lt;p style=&quot;margin-left: 0 ; margin-right: 0 ; margin-top: 0px ; margin-bottom: 0px ; text-indent: 0 ; direction: ltr&quot;&gt;&lt;font style=&quot;font-family: &amp;#34;times new roman&amp;#34; ; color: rgb(0 , 0 , 0) ; direction: ltr ; letter-spacing: 0px ; line-height: 140% ; opacity: 1&quot; size=&quot;1&quot;&gt;&lt;i&gt;Подп.&lt;/i&gt;&lt;/font&gt;&lt;font style=&quot;font-size: 12px ; font-family: &amp;#34;times new roman&amp;#34; ; color: #000000 ; direction: ltr ; letter-spacing: 0px ; line-height: 140% ; opacity: 1&quot;&gt;&lt;br&gt;&lt;/font&gt;&lt;/p&gt;" style="verticalAlign=middle;align=center;vsdxID=45;fillColor=none;gradientColor=none;shape=stencil(nZBLDoAgDERP0z3SIyjew0SURgSD+Lu9kMZoXLhwN9O+tukAlrNpJg1SzDH4QW/URgNYgZTkjA4UkwJUgGXng+6DX1zLfmoymdXo17xh5zmRJ6Q42BWCfc2oJfdAr+Yv+AP9Cb7OJ3H/2JG1HNGz/84klThPVCc=);strokeColor=none;labelBackgroundColor=none;rounded=0;html=1;whiteSpace=wrap;strokeWidth=1;" parent="flblZkYbyNQ9tiGkdh4v-29" vertex="1">
          <mxGeometry x="160" y="80" width="60" height="20" as="geometry" />
        </mxCell>
        <mxCell id="U5MXIK-24vMOK5HsXXuc-5" value="&lt;p style=&quot;margin-left: 0 ; margin-right: 0 ; margin-top: 0px ; margin-bottom: 0px ; text-indent: 0 ; direction: ltr&quot;&gt;&lt;font style=&quot;font-family: &amp;#34;times new roman&amp;#34; ; color: rgb(0 , 0 , 0) ; direction: ltr ; letter-spacing: 0px ; line-height: 140% ; opacity: 1&quot; size=&quot;1&quot;&gt;&lt;i&gt;Литера&lt;/i&gt;&lt;/font&gt;&lt;font style=&quot;font-size: 12px ; font-family: &amp;#34;times new roman&amp;#34; ; color: #000000 ; direction: ltr ; letter-spacing: 0px ; line-height: 140% ; opacity: 1&quot;&gt;&lt;br&gt;&lt;/font&gt;&lt;/p&gt;" style="verticalAlign=middle;align=center;vsdxID=46;fillColor=none;gradientColor=none;shape=stencil(nZBLDoAgDERP0z3SIyjew0SURgSD+Lu9kMZoXLhwN9O+tukAlrNpJg1SzDH4QW/URgNYgZTkjA4UkwJUgGXng+6DX1zLfmoymdXo17xh5zmRJ6Q42BWCfc2oJfdAr+Yv+AP9Cb7OJ3H/2JG1HNGz/84klThPVCc=);strokeColor=none;labelBackgroundColor=none;rounded=0;html=1;whiteSpace=wrap;strokeWidth=1;" parent="flblZkYbyNQ9tiGkdh4v-29" vertex="1">
          <mxGeometry x="500" y="60" width="60" height="20" as="geometry" />
        </mxCell>
        <mxCell id="U5MXIK-24vMOK5HsXXuc-7" style="vsdxID=48;edgeStyle=none;startArrow=none;endArrow=none;startSize=5;endSize=5;strokeColor=#000000;spacingTop=0;spacingBottom=0;spacingLeft=0;spacingRight=0;verticalAlign=middle;html=1;labelBackgroundColor=#ffffff;rounded=0;strokeWidth=1;" parent="flblZkYbyNQ9tiGkdh4v-29" edge="1">
          <mxGeometry relative="1" as="geometry">
            <mxPoint x="10" as="offset" />
            <Array as="points">
              <mxPoint x="580" y="150" />
            </Array>
            <mxPoint x="580" y="160" as="sourcePoint" />
            <mxPoint x="580" y="140" as="targetPoint" />
          </mxGeometry>
        </mxCell>
        <mxCell id="U5MXIK-24vMOK5HsXXuc-9" value="&lt;p style=&quot;margin-left: 0 ; margin-right: 0 ; margin-top: 0px ; margin-bottom: 0px ; text-indent: 0 ; direction: ltr&quot;&gt;&lt;font style=&quot;font-family: &amp;quot;times new roman&amp;quot; ; color: rgb(0 , 0 , 0) ; direction: ltr ; letter-spacing: 0px ; line-height: 140% ; opacity: 1&quot; size=&quot;1&quot;&gt;&lt;i style=&quot;font-size: 14px&quot;&gt;ГУИР 151004 00* СП&lt;/i&gt;&lt;/font&gt;&lt;font style=&quot;font-size: 19px ; font-family: &amp;quot;times new roman&amp;quot; ; color: #000000 ; direction: ltr ; letter-spacing: 0px ; line-height: 140% ; opacity: 1&quot;&gt;&lt;br&gt;&lt;/font&gt;&lt;/p&gt;" style="verticalAlign=middle;align=center;vsdxID=50;fillColor=none;gradientColor=none;shape=stencil(nZBLDoAgDERP0z3SIyjew0SURgSD+Lu9kMZoXLhwN9O+tukAlrNpJg1SzDH4QW/URgNYgZTkjA4UkwJUgGXng+6DX1zLfmoymdXo17xh5zmRJ6Q42BWCfc2oJfdAr+Yv+AP9Cb7OJ3H/2JG1HNGz/84klThPVCc=);strokeColor=none;labelBackgroundColor=none;rounded=0;html=1;whiteSpace=wrap;strokeWidth=1;" parent="flblZkYbyNQ9tiGkdh4v-29" vertex="1">
          <mxGeometry x="260" width="440" height="60" as="geometry" />
        </mxCell>
        <mxCell id="U5MXIK-24vMOK5HsXXuc-14" value="&lt;font face=&quot;times new roman&quot;&gt;ClientViewPairingThread&lt;/font&gt;&lt;span style=&quot;font-family: &amp;quot;times new roman&amp;quot;; background-color: initial;&quot;&gt;.&lt;/span&gt;&lt;font face=&quot;times new roman&quot;&gt;&lt;br&gt;&lt;/font&gt;&lt;p style=&quot;margin: 0px ; direction: ltr&quot;&gt;&lt;font face=&quot;times new roman&quot;&gt;Схема алгоритма.&lt;/font&gt;&lt;/p&gt;" style="verticalAlign=middle;align=center;vsdxID=51;fillColor=none;gradientColor=none;shape=stencil(nZBLDoAgDERP0z3SIyjew0SURgSD+Lu9kMZoXLhwN9O+tukAlrNpJg1SzDH4QW/URgNYgZTkjA4UkwJUgGXng+6DX1zLfmoymdXo17xh5zmRJ6Q42BWCfc2oJfdAr+Yv+AP9Cb7OJ3H/2JG1HNGz/84klThPVCc=);strokeColor=none;labelBackgroundColor=none;rounded=0;html=1;whiteSpace=wrap;strokeWidth=1;" parent="flblZkYbyNQ9tiGkdh4v-29" vertex="1">
          <mxGeometry x="260" y="60" width="240" height="100" as="geometry" />
        </mxCell>
        <mxCell id="U5MXIK-24vMOK5HsXXuc-66" style="vsdxID=1;edgeStyle=none;startArrow=none;endArrow=none;startSize=5;endSize=5;strokeColor=#000000;spacingTop=0;spacingBottom=0;spacingLeft=0;spacingRight=0;verticalAlign=middle;html=1;labelBackgroundColor=#ffffff;rounded=0;strokeWidth=1;" parent="flblZkYbyNQ9tiGkdh4v-29" edge="1">
          <mxGeometry relative="1" as="geometry">
            <mxPoint x="10" as="offset" />
            <Array as="points" />
            <mxPoint x="500" y="220" as="sourcePoint" />
            <mxPoint x="500" y="60" as="targetPoint" />
          </mxGeometry>
        </mxCell>
        <mxCell id="U5MXIK-24vMOK5HsXXuc-67" style="vsdxID=4;edgeStyle=none;startArrow=none;endArrow=none;startSize=5;endSize=5;strokeColor=#000000;spacingTop=0;spacingBottom=0;spacingLeft=0;spacingRight=0;verticalAlign=middle;html=1;labelBackgroundColor=#ffffff;rounded=0;strokeWidth=1;" parent="flblZkYbyNQ9tiGkdh4v-29" edge="1">
          <mxGeometry relative="1" as="geometry">
            <mxPoint x="10" as="offset" />
            <Array as="points" />
            <mxPoint x="260" y="220" as="sourcePoint" />
            <mxPoint x="260" as="targetPoint" />
          </mxGeometry>
        </mxCell>
        <mxCell id="U5MXIK-24vMOK5HsXXuc-70" style="vsdxID=11;edgeStyle=none;startArrow=none;endArrow=none;startSize=5;endSize=5;strokeColor=#000000;spacingTop=0;spacingBottom=0;spacingLeft=0;spacingRight=0;verticalAlign=middle;html=1;labelBackgroundColor=#ffffff;rounded=0;strokeWidth=1;" parent="flblZkYbyNQ9tiGkdh4v-29" edge="1">
          <mxGeometry relative="1" as="geometry">
            <Array as="points" />
            <mxPoint x="700" y="60" as="sourcePoint" />
            <mxPoint y="60" as="targetPoint" />
          </mxGeometry>
        </mxCell>
        <mxCell id="U5MXIK-24vMOK5HsXXuc-71" style="vsdxID=12;edgeStyle=none;startArrow=none;endArrow=none;startSize=5;endSize=5;strokeColor=#000000;spacingTop=0;spacingBottom=0;spacingLeft=0;spacingRight=0;verticalAlign=middle;html=1;labelBackgroundColor=#ffffff;rounded=0;strokeWidth=1;" parent="flblZkYbyNQ9tiGkdh4v-29" edge="1">
          <mxGeometry relative="1" as="geometry">
            <Array as="points" />
            <mxPoint x="700" y="160" as="sourcePoint" />
            <mxPoint y="160" as="targetPoint" />
          </mxGeometry>
        </mxCell>
        <mxCell id="U5MXIK-24vMOK5HsXXuc-72" style="vsdxID=13;edgeStyle=none;startArrow=none;endArrow=none;startSize=5;endSize=5;strokeColor=#000000;spacingTop=0;spacingBottom=0;spacingLeft=0;spacingRight=0;verticalAlign=middle;html=1;labelBackgroundColor=#ffffff;rounded=0;strokeWidth=1;" parent="flblZkYbyNQ9tiGkdh4v-29" edge="1">
          <mxGeometry relative="1" as="geometry">
            <Array as="points" />
            <mxPoint x="260" y="200" as="sourcePoint" />
            <mxPoint y="200" as="targetPoint" />
          </mxGeometry>
        </mxCell>
        <mxCell id="U5MXIK-24vMOK5HsXXuc-73" style="vsdxID=22;edgeStyle=none;startArrow=none;endArrow=none;startSize=5;endSize=5;strokeColor=#000000;spacingTop=0;spacingBottom=0;spacingLeft=0;spacingRight=0;verticalAlign=middle;html=1;labelBackgroundColor=#ffffff;rounded=0;strokeWidth=1;" parent="flblZkYbyNQ9tiGkdh4v-29" edge="1">
          <mxGeometry relative="1" as="geometry">
            <Array as="points" />
            <mxPoint x="260" y="180" as="sourcePoint" />
            <mxPoint y="180" as="targetPoint" />
          </mxGeometry>
        </mxCell>
        <mxCell id="U5MXIK-24vMOK5HsXXuc-74" style="vsdxID=23;edgeStyle=none;startArrow=none;endArrow=none;startSize=5;endSize=5;strokeColor=#000000;spacingTop=0;spacingBottom=0;spacingLeft=0;spacingRight=0;verticalAlign=middle;html=1;labelBackgroundColor=#ffffff;rounded=0;strokeWidth=1;" parent="flblZkYbyNQ9tiGkdh4v-29" edge="1">
          <mxGeometry relative="1" as="geometry">
            <Array as="points" />
            <mxPoint x="260" y="140" as="sourcePoint" />
            <mxPoint y="140" as="targetPoint" />
          </mxGeometry>
        </mxCell>
        <mxCell id="U5MXIK-24vMOK5HsXXuc-75" style="vsdxID=24;edgeStyle=none;startArrow=none;endArrow=none;startSize=5;endSize=5;strokeColor=#000000;spacingTop=0;spacingBottom=0;spacingLeft=0;spacingRight=0;verticalAlign=middle;html=1;labelBackgroundColor=#ffffff;rounded=0;strokeWidth=1;" parent="flblZkYbyNQ9tiGkdh4v-29" edge="1">
          <mxGeometry relative="1" as="geometry">
            <Array as="points" />
            <mxPoint x="260" y="120" as="sourcePoint" />
            <mxPoint y="120" as="targetPoint" />
          </mxGeometry>
        </mxCell>
        <mxCell id="U5MXIK-24vMOK5HsXXuc-76" style="vsdxID=25;edgeStyle=none;startArrow=none;endArrow=none;startSize=5;endSize=5;strokeColor=#000000;spacingTop=0;spacingBottom=0;spacingLeft=0;spacingRight=0;verticalAlign=middle;html=1;labelBackgroundColor=#ffffff;rounded=0;strokeWidth=1;" parent="flblZkYbyNQ9tiGkdh4v-29" edge="1">
          <mxGeometry relative="1" as="geometry">
            <Array as="points" />
            <mxPoint x="260" y="100" as="sourcePoint" />
            <mxPoint y="100" as="targetPoint" />
          </mxGeometry>
        </mxCell>
        <mxCell id="U5MXIK-24vMOK5HsXXuc-77" style="vsdxID=26;edgeStyle=none;startArrow=none;endArrow=none;startSize=5;endSize=5;strokeColor=#000000;spacingTop=0;spacingBottom=0;spacingLeft=0;spacingRight=0;verticalAlign=middle;html=1;labelBackgroundColor=#ffffff;rounded=0;strokeWidth=1;" parent="flblZkYbyNQ9tiGkdh4v-29" edge="1">
          <mxGeometry relative="1" as="geometry">
            <Array as="points" />
            <mxPoint x="260" y="80" as="sourcePoint" />
            <mxPoint y="80" as="targetPoint" />
          </mxGeometry>
        </mxCell>
        <mxCell id="U5MXIK-24vMOK5HsXXuc-78" style="vsdxID=27;edgeStyle=none;startArrow=none;endArrow=none;startSize=5;endSize=5;strokeColor=#000000;spacingTop=0;spacingBottom=0;spacingLeft=0;spacingRight=0;verticalAlign=middle;html=1;labelBackgroundColor=#ffffff;rounded=0;strokeWidth=1;" parent="flblZkYbyNQ9tiGkdh4v-29" edge="1">
          <mxGeometry relative="1" as="geometry">
            <Array as="points" />
            <mxPoint x="260" y="40" as="sourcePoint" />
            <mxPoint y="40" as="targetPoint" />
          </mxGeometry>
        </mxCell>
        <mxCell id="U5MXIK-24vMOK5HsXXuc-79" style="vsdxID=28;edgeStyle=none;startArrow=none;endArrow=none;startSize=5;endSize=5;strokeColor=#000000;spacingTop=0;spacingBottom=0;spacingLeft=0;spacingRight=0;verticalAlign=middle;html=1;labelBackgroundColor=#ffffff;rounded=0;strokeWidth=1;" parent="flblZkYbyNQ9tiGkdh4v-29" edge="1">
          <mxGeometry relative="1" as="geometry">
            <Array as="points" />
            <mxPoint x="260" y="20" as="sourcePoint" />
            <mxPoint y="20" as="targetPoint" />
          </mxGeometry>
        </mxCell>
        <mxCell id="U5MXIK-24vMOK5HsXXuc-80" style="vsdxID=29;edgeStyle=none;startArrow=none;endArrow=none;startSize=5;endSize=5;strokeColor=#000000;spacingTop=0;spacingBottom=0;spacingLeft=0;spacingRight=0;verticalAlign=middle;html=1;labelBackgroundColor=#ffffff;rounded=0;strokeWidth=1;" parent="flblZkYbyNQ9tiGkdh4v-29" edge="1">
          <mxGeometry relative="1" as="geometry">
            <Array as="points" />
            <mxPoint x="700" y="140" as="sourcePoint" />
            <mxPoint x="500" y="140" as="targetPoint" />
          </mxGeometry>
        </mxCell>
        <mxCell id="U5MXIK-24vMOK5HsXXuc-81" style="vsdxID=30;edgeStyle=none;startArrow=none;endArrow=none;startSize=5;endSize=5;strokeColor=#000000;spacingTop=0;spacingBottom=0;spacingLeft=0;spacingRight=0;verticalAlign=middle;html=1;labelBackgroundColor=#ffffff;rounded=0;strokeWidth=1;" parent="flblZkYbyNQ9tiGkdh4v-29" edge="1">
          <mxGeometry relative="1" as="geometry">
            <Array as="points" />
            <mxPoint x="700" y="80" as="sourcePoint" />
            <mxPoint x="500" y="80" as="targetPoint" />
          </mxGeometry>
        </mxCell>
        <mxCell id="U5MXIK-24vMOK5HsXXuc-82" style="vsdxID=31;edgeStyle=none;startArrow=none;endArrow=none;startSize=5;endSize=5;strokeColor=#000000;spacingTop=0;spacingBottom=0;spacingLeft=0;spacingRight=0;verticalAlign=middle;html=1;labelBackgroundColor=#ffffff;rounded=0;strokeWidth=1;" parent="flblZkYbyNQ9tiGkdh4v-29" edge="1">
          <mxGeometry relative="1" as="geometry">
            <mxPoint x="10" as="offset" />
            <Array as="points" />
            <mxPoint x="220" y="220" as="sourcePoint" />
            <mxPoint x="220" as="targetPoint" />
          </mxGeometry>
        </mxCell>
        <mxCell id="U5MXIK-24vMOK5HsXXuc-83" style="vsdxID=33;edgeStyle=none;startArrow=none;endArrow=none;startSize=5;endSize=5;strokeColor=#000000;spacingTop=0;spacingBottom=0;spacingLeft=0;spacingRight=0;verticalAlign=middle;html=1;labelBackgroundColor=#ffffff;rounded=0;strokeWidth=1;" parent="flblZkYbyNQ9tiGkdh4v-29" edge="1">
          <mxGeometry relative="1" as="geometry">
            <mxPoint x="10" as="offset" />
            <Array as="points" />
            <mxPoint x="160" y="220" as="sourcePoint" />
            <mxPoint x="160" as="targetPoint" />
          </mxGeometry>
        </mxCell>
        <mxCell id="U5MXIK-24vMOK5HsXXuc-84" style="vsdxID=34;edgeStyle=none;startArrow=none;endArrow=none;startSize=5;endSize=5;strokeColor=#000000;spacingTop=0;spacingBottom=0;spacingLeft=0;spacingRight=0;verticalAlign=middle;html=1;labelBackgroundColor=#ffffff;rounded=0;strokeWidth=1;" parent="flblZkYbyNQ9tiGkdh4v-29" edge="1">
          <mxGeometry relative="1" as="geometry">
            <mxPoint x="10" as="offset" />
            <Array as="points" />
            <mxPoint x="70" y="220" as="sourcePoint" />
            <mxPoint x="70" as="targetPoint" />
          </mxGeometry>
        </mxCell>
        <mxCell id="U5MXIK-24vMOK5HsXXuc-85" style="vsdxID=35;edgeStyle=none;startArrow=none;endArrow=none;startSize=5;endSize=5;strokeColor=#000000;spacingTop=0;spacingBottom=0;spacingLeft=0;spacingRight=0;verticalAlign=middle;html=1;labelBackgroundColor=#ffffff;rounded=0;strokeWidth=1;" parent="flblZkYbyNQ9tiGkdh4v-29" edge="1">
          <mxGeometry relative="1" as="geometry">
            <mxPoint x="10" as="offset" />
            <Array as="points" />
            <mxPoint x="30" y="100" as="sourcePoint" />
            <mxPoint x="30" as="targetPoint" />
          </mxGeometry>
        </mxCell>
        <mxCell id="U5MXIK-24vMOK5HsXXuc-86" style="vsdxID=36;edgeStyle=none;startArrow=none;endArrow=none;startSize=5;endSize=5;strokeColor=#000000;spacingTop=0;spacingBottom=0;spacingLeft=0;spacingRight=0;verticalAlign=middle;html=1;labelBackgroundColor=#ffffff;rounded=0;strokeWidth=1;" parent="flblZkYbyNQ9tiGkdh4v-29" edge="1">
          <mxGeometry relative="1" as="geometry">
            <mxPoint x="10" as="offset" />
            <Array as="points" />
            <mxPoint x="560" y="140" as="sourcePoint" />
            <mxPoint x="560" y="60" as="targetPoint" />
          </mxGeometry>
        </mxCell>
        <mxCell id="U5MXIK-24vMOK5HsXXuc-87" style="vsdxID=38;edgeStyle=none;startArrow=none;endArrow=none;startSize=5;endSize=5;strokeColor=#000000;spacingTop=0;spacingBottom=0;spacingLeft=0;spacingRight=0;verticalAlign=middle;html=1;labelBackgroundColor=#ffffff;rounded=0;strokeWidth=1;" parent="flblZkYbyNQ9tiGkdh4v-29" edge="1">
          <mxGeometry relative="1" as="geometry">
            <mxPoint x="10" as="offset" />
            <Array as="points" />
            <mxPoint x="620" y="140" as="sourcePoint" />
            <mxPoint x="620" y="60" as="targetPoint" />
          </mxGeometry>
        </mxCell>
        <mxCell id="U5MXIK-24vMOK5HsXXuc-88" style="vsdxID=39;edgeStyle=none;startArrow=none;endArrow=none;startSize=5;endSize=5;strokeColor=#000000;spacingTop=0;spacingBottom=0;spacingLeft=0;spacingRight=0;verticalAlign=middle;html=1;labelBackgroundColor=#ffffff;rounded=0;strokeWidth=1;" parent="flblZkYbyNQ9tiGkdh4v-29" edge="1">
          <mxGeometry relative="1" as="geometry">
            <mxPoint x="10" as="offset" />
            <Array as="points" />
            <mxPoint x="520" y="140" as="sourcePoint" />
            <mxPoint x="520" y="80" as="targetPoint" />
          </mxGeometry>
        </mxCell>
        <mxCell id="U5MXIK-24vMOK5HsXXuc-89" style="vsdxID=40;edgeStyle=none;startArrow=none;endArrow=none;startSize=5;endSize=5;strokeColor=#000000;spacingTop=0;spacingBottom=0;spacingLeft=0;spacingRight=0;verticalAlign=middle;html=1;labelBackgroundColor=#ffffff;rounded=0;strokeWidth=1;" parent="flblZkYbyNQ9tiGkdh4v-29" edge="1">
          <mxGeometry relative="1" as="geometry">
            <mxPoint x="10" as="offset" />
            <Array as="points" />
            <mxPoint x="540" y="140" as="sourcePoint" />
            <mxPoint x="540" y="80" as="targetPoint" />
          </mxGeometry>
        </mxCell>
        <mxCell id="U5MXIK-24vMOK5HsXXuc-6" value="&lt;p style=&quot;margin-left: 0 ; margin-right: 0 ; margin-top: 0px ; margin-bottom: 0px ; text-indent: 0 ; direction: ltr&quot;&gt;&lt;font style=&quot;font-family: &amp;#34;times new roman&amp;#34; ; color: rgb(0 , 0 , 0) ; direction: ltr ; letter-spacing: 0px ; line-height: 140% ; opacity: 1&quot; size=&quot;1&quot;&gt;&lt;i&gt;Лист&lt;/i&gt;&lt;/font&gt;&lt;font style=&quot;font-size: 12px ; font-family: &amp;#34;times new roman&amp;#34; ; color: #000000 ; direction: ltr ; letter-spacing: 0px ; line-height: 140% ; opacity: 1&quot;&gt;&lt;br&gt;&lt;/font&gt;&lt;/p&gt;" style="verticalAlign=middle;align=center;vsdxID=47;fillColor=none;gradientColor=none;shape=stencil(nZBLDoAgDERP0z3SIyjew0SURgSD+Lu9kMZoXLhwN9O+tukAlrNpJg1SzDH4QW/URgNYgZTkjA4UkwJUgGXng+6DX1zLfmoymdXo17xh5zmRJ6Q42BWCfc2oJfdAr+Yv+AP9Cb7OJ3H/2JG1HNGz/84klThPVCc=);strokeColor=none;labelBackgroundColor=none;rounded=0;html=1;whiteSpace=wrap;strokeWidth=1;" parent="flblZkYbyNQ9tiGkdh4v-29" vertex="1">
          <mxGeometry x="500" y="140" width="40" height="20" as="geometry" />
        </mxCell>
        <mxCell id="flblZkYbyNQ9tiGkdh4v-3" value="&lt;p style=&quot;margin-left: 0 ; margin-right: 0 ; margin-top: 0px ; margin-bottom: 0px ; text-indent: 0 ; direction: ltr&quot;&gt;&lt;font style=&quot;font-family: &amp;#34;times new roman&amp;#34; ; color: rgb(0 , 0 , 0) ; direction: ltr ; letter-spacing: 0px ; line-height: 140% ; opacity: 1&quot; size=&quot;1&quot;&gt;&lt;i&gt;Листов&lt;/i&gt;&lt;/font&gt;&lt;font style=&quot;font-size: 12px ; font-family: &amp;#34;times new roman&amp;#34; ; color: #000000 ; direction: ltr ; letter-spacing: 0px ; line-height: 140% ; opacity: 1&quot;&gt;&lt;br&gt;&lt;/font&gt;&lt;/p&gt;" style="verticalAlign=middle;align=center;vsdxID=47;fillColor=none;gradientColor=none;shape=stencil(nZBLDoAgDERP0z3SIyjew0SURgSD+Lu9kMZoXLhwN9O+tukAlrNpJg1SzDH4QW/URgNYgZTkjA4UkwJUgGXng+6DX1zLfmoymdXo17xh5zmRJ6Q42BWCfc2oJfdAr+Yv+AP9Cb7OJ3H/2JG1HNGz/84klThPVCc=);strokeColor=none;labelBackgroundColor=none;rounded=0;html=1;whiteSpace=wrap;strokeWidth=1;" parent="flblZkYbyNQ9tiGkdh4v-29" vertex="1">
          <mxGeometry x="580" y="140" width="50" height="20" as="geometry" />
        </mxCell>
        <mxCell id="flblZkYbyNQ9tiGkdh4v-5" value="&lt;p style=&quot;margin-left: 0 ; margin-right: 0 ; margin-top: 0px ; margin-bottom: 0px ; text-indent: 0 ; direction: ltr&quot;&gt;&lt;font style=&quot;font-family: &amp;#34;times new roman&amp;#34; ; color: rgb(0 , 0 , 0) ; direction: ltr ; letter-spacing: 0px ; line-height: 140% ; opacity: 1&quot; size=&quot;1&quot;&gt;&lt;i&gt;1&lt;/i&gt;&lt;/font&gt;&lt;font style=&quot;font-size: 12px ; font-family: &amp;#34;times new roman&amp;#34; ; color: #000000 ; direction: ltr ; letter-spacing: 0px ; line-height: 140% ; opacity: 1&quot;&gt;&lt;br&gt;&lt;/font&gt;&lt;/p&gt;" style="verticalAlign=middle;align=center;vsdxID=47;fillColor=none;gradientColor=none;shape=stencil(nZBLDoAgDERP0z3SIyjew0SURgSD+Lu9kMZoXLhwN9O+tukAlrNpJg1SzDH4QW/URgNYgZTkjA4UkwJUgGXng+6DX1zLfmoymdXo17xh5zmRJ6Q42BWCfc2oJfdAr+Yv+AP9Cb7OJ3H/2JG1HNGz/84klThPVCc=);strokeColor=none;labelBackgroundColor=none;rounded=0;html=1;whiteSpace=wrap;strokeWidth=1;" parent="flblZkYbyNQ9tiGkdh4v-29" vertex="1">
          <mxGeometry x="670" y="140" width="30" height="20" as="geometry" />
        </mxCell>
        <mxCell id="flblZkYbyNQ9tiGkdh4v-6" value="&lt;p style=&quot;margin-left: 0 ; margin-right: 0 ; margin-top: 0px ; margin-bottom: 0px ; text-indent: 0 ; direction: ltr&quot;&gt;&lt;font style=&quot;font-family: &amp;#34;times new roman&amp;#34; ; color: rgb(0 , 0 , 0) ; direction: ltr ; letter-spacing: 0px ; line-height: 140% ; opacity: 1&quot; size=&quot;1&quot;&gt;&lt;i&gt;1&lt;/i&gt;&lt;/font&gt;&lt;font style=&quot;font-size: 12px ; font-family: &amp;#34;times new roman&amp;#34; ; color: #000000 ; direction: ltr ; letter-spacing: 0px ; line-height: 140% ; opacity: 1&quot;&gt;&lt;br&gt;&lt;/font&gt;&lt;/p&gt;" style="verticalAlign=middle;align=center;vsdxID=47;fillColor=none;gradientColor=none;shape=stencil(nZBLDoAgDERP0z3SIyjew0SURgSD+Lu9kMZoXLhwN9O+tukAlrNpJg1SzDH4QW/URgNYgZTkjA4UkwJUgGXng+6DX1zLfmoymdXo17xh5zmRJ6Q42BWCfc2oJfdAr+Yv+AP9Cb7OJ3H/2JG1HNGz/84klThPVCc=);strokeColor=none;labelBackgroundColor=none;rounded=0;html=1;whiteSpace=wrap;strokeWidth=1;" parent="flblZkYbyNQ9tiGkdh4v-29" vertex="1">
          <mxGeometry x="550" y="140" width="30" height="20" as="geometry" />
        </mxCell>
        <mxCell id="flblZkYbyNQ9tiGkdh4v-7" value="&lt;p style=&quot;margin-left: 0 ; margin-right: 0 ; margin-top: 0px ; margin-bottom: 0px ; text-indent: 0 ; direction: ltr&quot;&gt;&lt;font style=&quot;font-family: &amp;#34;times new roman&amp;#34; ; color: rgb(0 , 0 , 0) ; direction: ltr ; letter-spacing: 0px ; line-height: 140% ; opacity: 1&quot; size=&quot;1&quot;&gt;&lt;i&gt;Масса&lt;/i&gt;&lt;/font&gt;&lt;font style=&quot;font-size: 12px ; font-family: &amp;#34;times new roman&amp;#34; ; color: #000000 ; direction: ltr ; letter-spacing: 0px ; line-height: 140% ; opacity: 1&quot;&gt;&lt;br&gt;&lt;/font&gt;&lt;/p&gt;" style="verticalAlign=middle;align=center;vsdxID=46;fillColor=none;gradientColor=none;shape=stencil(nZBLDoAgDERP0z3SIyjew0SURgSD+Lu9kMZoXLhwN9O+tukAlrNpJg1SzDH4QW/URgNYgZTkjA4UkwJUgGXng+6DX1zLfmoymdXo17xh5zmRJ6Q42BWCfc2oJfdAr+Yv+AP9Cb7OJ3H/2JG1HNGz/84klThPVCc=);strokeColor=none;labelBackgroundColor=none;rounded=0;html=1;whiteSpace=wrap;strokeWidth=1;" parent="flblZkYbyNQ9tiGkdh4v-29" vertex="1">
          <mxGeometry x="560" y="60" width="60" height="20" as="geometry" />
        </mxCell>
        <mxCell id="flblZkYbyNQ9tiGkdh4v-8" value="&lt;p style=&quot;margin-left: 0 ; margin-right: 0 ; margin-top: 0px ; margin-bottom: 0px ; text-indent: 0 ; direction: ltr&quot;&gt;&lt;font style=&quot;font-family: &amp;#34;times new roman&amp;#34; ; color: rgb(0 , 0 , 0) ; direction: ltr ; letter-spacing: 0px ; line-height: 140% ; opacity: 1&quot; size=&quot;1&quot;&gt;&lt;i&gt;Масштаб&lt;/i&gt;&lt;/font&gt;&lt;font style=&quot;font-size: 12px ; font-family: &amp;#34;times new roman&amp;#34; ; color: #000000 ; direction: ltr ; letter-spacing: 0px ; line-height: 140% ; opacity: 1&quot;&gt;&lt;br&gt;&lt;/font&gt;&lt;/p&gt;" style="verticalAlign=middle;align=center;vsdxID=46;fillColor=none;gradientColor=none;shape=stencil(nZBLDoAgDERP0z3SIyjew0SURgSD+Lu9kMZoXLhwN9O+tukAlrNpJg1SzDH4QW/URgNYgZTkjA4UkwJUgGXng+6DX1zLfmoymdXo17xh5zmRJ6Q42BWCfc2oJfdAr+Yv+AP9Cb7OJ3H/2JG1HNGz/84klThPVCc=);strokeColor=none;labelBackgroundColor=none;rounded=0;html=1;whiteSpace=wrap;strokeWidth=1;" parent="flblZkYbyNQ9tiGkdh4v-29" vertex="1">
          <mxGeometry x="620" y="60" width="80" height="20" as="geometry" />
        </mxCell>
        <mxCell id="U5MXIK-24vMOK5HsXXuc-8" value="&lt;p style=&quot;margin-left: 0 ; margin-right: 0 ; margin-top: 0px ; margin-bottom: 0px ; text-indent: 0 ; direction: ltr&quot;&gt;&lt;font style=&quot;font-family: &amp;#34;times new roman&amp;#34; ; color: rgb(0 , 0 , 0) ; direction: ltr ; letter-spacing: 0px ; line-height: 140% ; opacity: 1&quot; size=&quot;1&quot;&gt;&lt;i style=&quot;font-size: 12px&quot;&gt;ПОИТ гр. 151004&lt;/i&gt;&lt;/font&gt;&lt;font style=&quot;font-size: 16px ; font-family: &amp;#34;times new roman&amp;#34; ; color: #000000 ; direction: ltr ; letter-spacing: 0px ; line-height: 140% ; opacity: 1&quot;&gt;&lt;br&gt;&lt;/font&gt;&lt;/p&gt;" style="verticalAlign=middle;align=center;vsdxID=49;fillColor=none;gradientColor=none;shape=stencil(nZBLDoAgDERP0z3SIyjew0SURgSD+Lu9kMZoXLhwN9O+tukAlrNpJg1SzDH4QW/URgNYgZTkjA4UkwJUgGXng+6DX1zLfmoymdXo17xh5zmRJ6Q42BWCfc2oJfdAr+Yv+AP9Cb7OJ3H/2JG1HNGz/84klThPVCc=);strokeColor=none;labelBackgroundColor=none;rounded=0;html=1;whiteSpace=wrap;strokeWidth=1;" parent="flblZkYbyNQ9tiGkdh4v-29" vertex="1">
          <mxGeometry x="500" y="160" width="200" height="60" as="geometry" />
        </mxCell>
        <mxCell id="flblZkYbyNQ9tiGkdh4v-12" value="&lt;p style=&quot;margin-left: 0 ; margin-right: 0 ; margin-top: 0px ; margin-bottom: 0px ; text-indent: 0 ; direction: ltr&quot;&gt;&lt;font style=&quot;font-family: &amp;#34;times new roman&amp;#34; ; color: rgb(0 , 0 , 0) ; direction: ltr ; letter-spacing: 0px ; line-height: 140% ; opacity: 1&quot; size=&quot;1&quot;&gt;&lt;i&gt;Изм.&lt;/i&gt;&lt;/font&gt;&lt;font style=&quot;font-size: 12px ; font-family: &amp;#34;times new roman&amp;#34; ; color: #000000 ; direction: ltr ; letter-spacing: 0px ; line-height: 140% ; opacity: 1&quot;&gt;&lt;br&gt;&lt;/font&gt;&lt;/p&gt;" style="verticalAlign=middle;align=center;vsdxID=45;fillColor=none;gradientColor=none;shape=stencil(nZBLDoAgDERP0z3SIyjew0SURgSD+Lu9kMZoXLhwN9O+tukAlrNpJg1SzDH4QW/URgNYgZTkjA4UkwJUgGXng+6DX1zLfmoymdXo17xh5zmRJ6Q42BWCfc2oJfdAr+Yv+AP9Cb7OJ3H/2JG1HNGz/84klThPVCc=);strokeColor=none;labelBackgroundColor=none;rounded=0;html=1;whiteSpace=wrap;strokeWidth=1;" parent="flblZkYbyNQ9tiGkdh4v-29" vertex="1">
          <mxGeometry y="80" width="30" height="20" as="geometry" />
        </mxCell>
        <mxCell id="flblZkYbyNQ9tiGkdh4v-19" value="&lt;p style=&quot;margin: 0px; text-indent: 0px; direction: ltr; font-size: 10px;&quot;&gt;Иванов И.И.&lt;/p&gt;" style="verticalAlign=middle;align=center;vsdxID=41;fillColor=none;gradientColor=none;shape=stencil(nZBLDoAgDERP0z3SIyjew0SURgSD+Lu9kMZoXLhwN9O+tukAlrNpJg1SzDH4QW/URgNYgZTkjA4UkwJUgGXng+6DX1zLfmoymdXo17xh5zmRJ6Q42BWCfc2oJfdAr+Yv+AP9Cb7OJ3H/2JG1HNGz/84klThPVCc=);strokeColor=none;labelBackgroundColor=none;rounded=0;html=1;whiteSpace=wrap;strokeWidth=1;fontSize=10;fontStyle=2;fontFamily=Times New Roman;" parent="flblZkYbyNQ9tiGkdh4v-29" vertex="1">
          <mxGeometry x="70" y="100" width="90" height="20" as="geometry" />
        </mxCell>
        <mxCell id="ORajsjJcxbQu_IU-mkYe-1" value="&lt;font face=&quot;Times New Roman&quot; size=&quot;1&quot;&gt;Т. Контроль&lt;/font&gt;" style="text;html=1;align=left;verticalAlign=middle;resizable=0;points=[];autosize=1;strokeColor=none;strokeWidth=1;fontStyle=2" parent="flblZkYbyNQ9tiGkdh4v-29" vertex="1">
          <mxGeometry y="140" width="70" height="20" as="geometry" />
        </mxCell>
        <mxCell id="ORajsjJcxbQu_IU-mkYe-2" value="&lt;span style=&quot;font-family: &amp;quot;times new roman&amp;quot; ; font-size: 10px&quot;&gt;Н. Контроль&lt;/span&gt;" style="text;html=1;align=left;verticalAlign=middle;resizable=0;points=[];autosize=1;strokeColor=none;strokeWidth=1;fontStyle=2" parent="flblZkYbyNQ9tiGkdh4v-29" vertex="1">
          <mxGeometry y="160" width="70" height="20" as="geometry" />
        </mxCell>
        <mxCell id="ORajsjJcxbQu_IU-mkYe-3" value="&lt;font face=&quot;Times New Roman&quot; style=&quot;font-size: 10px&quot;&gt;Утв.&lt;/font&gt;" style="text;html=1;align=left;verticalAlign=middle;resizable=0;points=[];autosize=1;strokeColor=none;strokeWidth=1;fontStyle=2" parent="flblZkYbyNQ9tiGkdh4v-29" vertex="1">
          <mxGeometry y="180" width="40" height="20" as="geometry" />
        </mxCell>
        <mxCell id="ORajsjJcxbQu_IU-mkYe-4" value="&lt;font face=&quot;Times New Roman&quot; style=&quot;font-size: 10px&quot;&gt;Реценз&lt;/font&gt;" style="text;html=1;align=left;verticalAlign=middle;resizable=0;points=[];autosize=1;strokeColor=none;strokeWidth=1;fontStyle=2" parent="flblZkYbyNQ9tiGkdh4v-29" vertex="1">
          <mxGeometry y="200" width="40" height="20" as="geometry" />
        </mxCell>
        <mxCell id="r4EkMSD5H6vDeUgWiK47-10" value="&lt;p style=&quot;margin-left: 0 ; margin-right: 0 ; margin-top: 0px ; margin-bottom: 0px ; text-indent: 0 ; direction: ltr&quot;&gt;&lt;font style=&quot;font-size: 14px ; font-family: &amp;#34;times new roman&amp;#34; ; color: #000000 ; direction: ltr ; letter-spacing: 0px ; line-height: 140% ; opacity: 1&quot;&gt;&lt;br&gt;&lt;/font&gt;&lt;/p&gt;" style="verticalAlign=middle;align=center;vsdxID=41;fillColor=none;gradientColor=none;shape=stencil(nZBLDoAgDERP0z3SIyjew0SURgSD+Lu9kMZoXLhwN9O+tukAlrNpJg1SzDH4QW/URgNYgZTkjA4UkwJUgGXng+6DX1zLfmoymdXo17xh5zmRJ6Q42BWCfc2oJfdAr+Yv+AP9Cb7OJ3H/2JG1HNGz/84klThPVCc=);strokeColor=none;labelBackgroundColor=none;rounded=0;html=1;whiteSpace=wrap;strokeWidth=1;" parent="flblZkYbyNQ9tiGkdh4v-29" vertex="1">
          <mxGeometry x="70" y="160" width="90" height="20" as="geometry" />
        </mxCell>
        <mxCell id="r4EkMSD5H6vDeUgWiK47-11" value="&lt;p style=&quot;margin-left: 0 ; margin-right: 0 ; margin-top: 0px ; margin-bottom: 0px ; text-indent: 0 ; direction: ltr&quot;&gt;&lt;font style=&quot;font-size: 14px ; font-family: &amp;#34;times new roman&amp;#34; ; color: #000000 ; direction: ltr ; letter-spacing: 0px ; line-height: 140% ; opacity: 1&quot;&gt;&lt;br&gt;&lt;/font&gt;&lt;/p&gt;" style="verticalAlign=middle;align=center;vsdxID=41;fillColor=none;gradientColor=none;shape=stencil(nZBLDoAgDERP0z3SIyjew0SURgSD+Lu9kMZoXLhwN9O+tukAlrNpJg1SzDH4QW/URgNYgZTkjA4UkwJUgGXng+6DX1zLfmoymdXo17xh5zmRJ6Q42BWCfc2oJfdAr+Yv+AP9Cb7OJ3H/2JG1HNGz/84klThPVCc=);strokeColor=none;labelBackgroundColor=none;rounded=0;html=1;whiteSpace=wrap;strokeWidth=1;" parent="flblZkYbyNQ9tiGkdh4v-29" vertex="1">
          <mxGeometry x="70" y="180" width="90" height="20" as="geometry" />
        </mxCell>
        <mxCell id="ORajsjJcxbQu_IU-mkYe-6" value="&lt;font style=&quot;font-size: 8px&quot;&gt;У&lt;/font&gt;" style="text;html=1;align=center;verticalAlign=middle;resizable=0;points=[];autosize=1;strokeColor=none;strokeWidth=1;fontStyle=2" parent="1" vertex="1">
          <mxGeometry x="3080" y="2180" width="20" height="20" as="geometry" />
        </mxCell>
        <mxCell id="nCA1nTuE7ENm7l3HEIyr-139" value="" style="endArrow=openThin;html=1;fontFamily=Times New Roman;fontSize=26;endFill=0;exitX=0.5;exitY=1;exitDx=0;exitDy=0;rounded=0;edgeStyle=orthogonalEdgeStyle;entryX=0.5;entryY=0;entryDx=0;entryDy=0;" edge="1" parent="1" source="nCA1nTuE7ENm7l3HEIyr-154" target="nCA1nTuE7ENm7l3HEIyr-186">
          <mxGeometry width="50" height="50" relative="1" as="geometry">
            <mxPoint x="1370" y="1480" as="sourcePoint" />
            <mxPoint x="1370" y="2500" as="targetPoint" />
            <Array as="points" />
          </mxGeometry>
        </mxCell>
        <mxCell id="nCA1nTuE7ENm7l3HEIyr-140" value="" style="endArrow=openThin;html=1;fontFamily=Times New Roman;fontSize=26;endFill=0;rounded=0;edgeStyle=orthogonalEdgeStyle;entryX=0.5;entryY=0;entryDx=0;entryDy=0;exitX=0.5;exitY=0;exitDx=0;exitDy=0;" edge="1" parent="1" source="nCA1nTuE7ENm7l3HEIyr-166" target="nCA1nTuE7ENm7l3HEIyr-171">
          <mxGeometry width="50" height="50" relative="1" as="geometry">
            <mxPoint x="2980" y="1160" as="sourcePoint" />
            <mxPoint x="2980" y="1880" as="targetPoint" />
            <Array as="points" />
          </mxGeometry>
        </mxCell>
        <mxCell id="nCA1nTuE7ENm7l3HEIyr-141" value="" style="endArrow=openThin;html=1;fontFamily=Times New Roman;fontSize=26;endFill=0;rounded=0;edgeStyle=orthogonalEdgeStyle;entryX=0.5;entryY=1;entryDx=0;entryDy=0;exitX=0.5;exitY=1;exitDx=0;exitDy=0;" edge="1" parent="1" source="nCA1nTuE7ENm7l3HEIyr-189" target="nCA1nTuE7ENm7l3HEIyr-166">
          <mxGeometry width="50" height="50" relative="1" as="geometry">
            <mxPoint x="2310" y="290" as="sourcePoint" />
            <mxPoint x="2310" y="1930" as="targetPoint" />
            <Array as="points" />
          </mxGeometry>
        </mxCell>
        <mxCell id="nCA1nTuE7ENm7l3HEIyr-142" value="" style="endArrow=openThin;html=1;fontFamily=Times New Roman;fontSize=26;endFill=0;rounded=0;edgeStyle=orthogonalEdgeStyle;entryX=0.5;entryY=0;entryDx=0;entryDy=0;exitX=0.5;exitY=1;exitDx=0;exitDy=0;" edge="1" parent="1" source="nCA1nTuE7ENm7l3HEIyr-187" target="nCA1nTuE7ENm7l3HEIyr-188">
          <mxGeometry width="50" height="50" relative="1" as="geometry">
            <mxPoint x="1960" y="270" as="sourcePoint" />
            <mxPoint x="1800" y="1880" as="targetPoint" />
            <Array as="points" />
          </mxGeometry>
        </mxCell>
        <mxCell id="nCA1nTuE7ENm7l3HEIyr-143" value="" style="endArrow=openThin;html=1;fontFamily=Times New Roman;fontSize=26;endFill=0;exitX=0.5;exitY=1;exitDx=0;exitDy=0;rounded=0;edgeStyle=orthogonalEdgeStyle;entryX=0.5;entryY=0;entryDx=0;entryDy=0;" edge="1" parent="1" source="nCA1nTuE7ENm7l3HEIyr-145" target="nCA1nTuE7ENm7l3HEIyr-154">
          <mxGeometry width="50" height="50" relative="1" as="geometry">
            <mxPoint x="170" y="519.9999999999998" as="sourcePoint" />
            <mxPoint x="450" y="600" as="targetPoint" />
            <Array as="points" />
          </mxGeometry>
        </mxCell>
        <mxCell id="nCA1nTuE7ENm7l3HEIyr-144" value="" style="rhombus;whiteSpace=wrap;html=1;rounded=0;strokeWidth=1;fontFamily=Times New Roman;fontSize=26;" vertex="1" parent="1">
          <mxGeometry x="760" y="1120" width="480" height="120" as="geometry" />
        </mxCell>
        <mxCell id="nCA1nTuE7ENm7l3HEIyr-145" value="Вход&lt;br style=&quot;font-size: 26px&quot;&gt;ClientViewPairingThread.run()" style="rounded=1;whiteSpace=wrap;html=1;arcSize=50;fontFamily=Times New Roman;fontSize=26;strokeWidth=1;" vertex="1" parent="1">
          <mxGeometry x="760" y="160" width="480" height="120" as="geometry" />
        </mxCell>
        <mxCell id="nCA1nTuE7ENm7l3HEIyr-146" value="A1&lt;br style=&quot;font-size: 26px;&quot;&gt;this.clientView.socket.isConnected &amp;amp;&amp;amp; this.clientView.isWaiting" style="shape=loopLimit;whiteSpace=wrap;html=1;rounded=0;strokeWidth=1;fontFamily=Times New Roman;fontSize=26;size=40;" vertex="1" parent="1">
          <mxGeometry x="760" y="320" width="480" height="120" as="geometry" />
        </mxCell>
        <mxCell id="nCA1nTuE7ENm7l3HEIyr-147" value="&lt;div style=&quot;font-size: 26px;&quot;&gt;Server.pairingLockForTwoPair.acquire(1)&lt;br style=&quot;font-size: 26px;&quot;&gt;&lt;/div&gt;" style="rounded=0;whiteSpace=wrap;html=1;fontSize=26;fontFamily=Times New Roman;strokeWidth=1;" vertex="1" parent="1">
          <mxGeometry x="760" y="480" width="480" height="120" as="geometry" />
        </mxCell>
        <mxCell id="nCA1nTuE7ENm7l3HEIyr-148" value="&lt;div style=&quot;font-size: 26px;&quot;&gt;var chosenPair: ClientView? = null&lt;br style=&quot;font-size: 26px;&quot;&gt;&lt;/div&gt;" style="rounded=0;whiteSpace=wrap;html=1;fontSize=26;fontFamily=Times New Roman;strokeWidth=1;" vertex="1" parent="1">
          <mxGeometry x="760" y="640" width="480" height="120" as="geometry" />
        </mxCell>
        <mxCell id="nCA1nTuE7ENm7l3HEIyr-149" value="A2&lt;br style=&quot;font-size: 26px;&quot;&gt;this.clientView.socket.isConnected &amp;amp;&amp;amp; chosenPair == null" style="shape=loopLimit;whiteSpace=wrap;html=1;rounded=0;strokeWidth=1;fontFamily=Times New Roman;fontSize=26;size=40;" vertex="1" parent="1">
          <mxGeometry x="760" y="800" width="480" height="120" as="geometry" />
        </mxCell>
        <mxCell id="nCA1nTuE7ENm7l3HEIyr-150" value="A3&lt;br style=&quot;font-size: 26px;&quot;&gt;clientView in Server.clientViews" style="shape=loopLimit;whiteSpace=wrap;html=1;rounded=0;strokeWidth=1;fontFamily=Times New Roman;fontSize=26;size=40;" vertex="1" parent="1">
          <mxGeometry x="760" y="960" width="480" height="120" as="geometry" />
        </mxCell>
        <mxCell id="nCA1nTuE7ENm7l3HEIyr-151" value="" style="strokeWidth=2;html=1;shape=mxgraph.flowchart.annotation_2;align=left;fontSize=26;rounded=0;fillColor=none;fontFamily=Times New Roman;direction=west;" vertex="1" parent="1">
          <mxGeometry x="660" y="1120" width="30" height="120" as="geometry" />
        </mxCell>
        <mxCell id="nCA1nTuE7ENm7l3HEIyr-152" value="" style="endArrow=none;dashed=1;html=1;fontSize=26;entryX=0;entryY=0.5;entryPerimeter=0;rounded=0;edgeStyle=orthogonalEdgeStyle;fontFamily=Times New Roman;exitX=0;exitY=0.5;exitDx=0;exitDy=0;" edge="1" parent="1" target="nCA1nTuE7ENm7l3HEIyr-151">
          <mxGeometry width="50" height="50" relative="1" as="geometry">
            <mxPoint x="760" y="1180" as="sourcePoint" />
            <mxPoint x="623.5" y="1170" as="targetPoint" />
          </mxGeometry>
        </mxCell>
        <mxCell id="nCA1nTuE7ENm7l3HEIyr-153" value="clientView != this.clientView &amp;amp;&amp;amp; !clientView.isPaired &amp;amp;&amp;amp; clientView.isWaiting" style="text;whiteSpace=wrap;html=1;fontSize=26;fontFamily=Times New Roman;" vertex="1" parent="1">
          <mxGeometry x="340" y="1120" width="310" height="120" as="geometry" />
        </mxCell>
        <mxCell id="nCA1nTuE7ENm7l3HEIyr-154" value="&lt;div style=&quot;font-size: 26px;&quot;&gt;chosenPair = clientView&lt;br style=&quot;font-size: 26px;&quot;&gt;&lt;/div&gt;" style="rounded=0;whiteSpace=wrap;html=1;fontSize=26;fontFamily=Times New Roman;strokeWidth=1;" vertex="1" parent="1">
          <mxGeometry x="760" y="1300" width="480" height="120" as="geometry" />
        </mxCell>
        <mxCell id="nCA1nTuE7ENm7l3HEIyr-155" value="&lt;div style=&quot;font-size: 26px;&quot;&gt;this.clientView.pair = clientView&lt;br style=&quot;font-size: 26px;&quot;&gt;&lt;/div&gt;" style="rounded=0;whiteSpace=wrap;html=1;fontSize=26;fontFamily=Times New Roman;strokeWidth=1;" vertex="1" parent="1">
          <mxGeometry x="760" y="1460" width="480" height="120" as="geometry" />
        </mxCell>
        <mxCell id="nCA1nTuE7ENm7l3HEIyr-156" value="&lt;div style=&quot;font-size: 26px;&quot;&gt;clientView.pair = this.clientView&lt;br style=&quot;font-size: 26px;&quot;&gt;&lt;/div&gt;" style="rounded=0;whiteSpace=wrap;html=1;fontSize=26;fontFamily=Times New Roman;strokeWidth=1;" vertex="1" parent="1">
          <mxGeometry x="760" y="1620" width="480" height="120" as="geometry" />
        </mxCell>
        <mxCell id="nCA1nTuE7ENm7l3HEIyr-157" value="&lt;div style=&quot;font-size: 26px;&quot;&gt;pairClientStartMessage.content = PieceTeams.BLACK&lt;br style=&quot;font-size: 26px;&quot;&gt;&lt;/div&gt;" style="rounded=0;whiteSpace=wrap;html=1;fontSize=26;fontFamily=Times New Roman;strokeWidth=1;" vertex="1" parent="1">
          <mxGeometry x="2360" y="320" width="480" height="120" as="geometry" />
        </mxCell>
        <mxCell id="nCA1nTuE7ENm7l3HEIyr-158" value="" style="group;fontSize=26;fontFamily=Times New Roman;" vertex="1" connectable="0" parent="1">
          <mxGeometry x="2360" y="480" width="480" height="120" as="geometry" />
        </mxCell>
        <mxCell id="nCA1nTuE7ENm7l3HEIyr-159" value="&lt;font style=&quot;font-size: 26px;&quot;&gt;sendMessage(this.clientView, clientStartMessage)&lt;/font&gt;" style="rounded=0;whiteSpace=wrap;html=1;fontSize=26;fontFamily=Times New Roman;" vertex="1" parent="nCA1nTuE7ENm7l3HEIyr-158">
          <mxGeometry width="480" height="119.99999999999983" as="geometry" />
        </mxCell>
        <mxCell id="nCA1nTuE7ENm7l3HEIyr-160" value="" style="endArrow=none;html=1;rounded=0;edgeStyle=orthogonalEdgeStyle;fontSize=26;fontFamily=Times New Roman;" edge="1" parent="nCA1nTuE7ENm7l3HEIyr-158">
          <mxGeometry width="50" height="50" relative="1" as="geometry">
            <mxPoint x="26.666666666666664" y="119.99999999999983" as="sourcePoint" />
            <mxPoint x="26.666666666666664" as="targetPoint" />
          </mxGeometry>
        </mxCell>
        <mxCell id="nCA1nTuE7ENm7l3HEIyr-161" value="" style="endArrow=none;html=1;rounded=0;edgeStyle=orthogonalEdgeStyle;fontSize=26;fontFamily=Times New Roman;" edge="1" parent="nCA1nTuE7ENm7l3HEIyr-158">
          <mxGeometry width="50" height="50" relative="1" as="geometry">
            <mxPoint x="453.3333333333333" y="120" as="sourcePoint" />
            <mxPoint x="453.3333333333333" y="1.705302565824238e-13" as="targetPoint" />
          </mxGeometry>
        </mxCell>
        <mxCell id="nCA1nTuE7ENm7l3HEIyr-162" value="" style="group;fontSize=26;fontFamily=Times New Roman;" vertex="1" connectable="0" parent="1">
          <mxGeometry x="2360" y="640" width="480" height="120" as="geometry" />
        </mxCell>
        <mxCell id="nCA1nTuE7ENm7l3HEIyr-163" value="&lt;font style=&quot;font-size: 26px;&quot;&gt;sendMessage(chosenPair, pairClientStartMessage)&lt;/font&gt;" style="rounded=0;whiteSpace=wrap;html=1;fontSize=26;fontFamily=Times New Roman;" vertex="1" parent="nCA1nTuE7ENm7l3HEIyr-162">
          <mxGeometry width="480" height="119.99999999999983" as="geometry" />
        </mxCell>
        <mxCell id="nCA1nTuE7ENm7l3HEIyr-164" value="" style="endArrow=none;html=1;rounded=0;edgeStyle=orthogonalEdgeStyle;fontSize=26;fontFamily=Times New Roman;" edge="1" parent="nCA1nTuE7ENm7l3HEIyr-162">
          <mxGeometry width="50" height="50" relative="1" as="geometry">
            <mxPoint x="26.666666666666664" y="119.99999999999983" as="sourcePoint" />
            <mxPoint x="26.666666666666664" as="targetPoint" />
          </mxGeometry>
        </mxCell>
        <mxCell id="nCA1nTuE7ENm7l3HEIyr-165" value="" style="endArrow=none;html=1;rounded=0;edgeStyle=orthogonalEdgeStyle;fontSize=26;fontFamily=Times New Roman;" edge="1" parent="nCA1nTuE7ENm7l3HEIyr-162">
          <mxGeometry width="50" height="50" relative="1" as="geometry">
            <mxPoint x="453.3333333333333" y="120" as="sourcePoint" />
            <mxPoint x="453.3333333333333" y="1.705302565824238e-13" as="targetPoint" />
          </mxGeometry>
        </mxCell>
        <mxCell id="nCA1nTuE7ENm7l3HEIyr-166" value="&lt;font style=&quot;font-size: 26px&quot;&gt;A&lt;font style=&quot;font-size: 26px&quot;&gt;3&lt;/font&gt;&lt;/font&gt;" style="shape=loopLimit;whiteSpace=wrap;html=1;rounded=0;strokeWidth=1;direction=west;fontFamily=Times New Roman;fontSize=26;size=40;" vertex="1" parent="1">
          <mxGeometry x="2360" y="1000" width="480" height="120" as="geometry" />
        </mxCell>
        <mxCell id="nCA1nTuE7ENm7l3HEIyr-167" value="&lt;div style=&quot;font-size: 26px;&quot;&gt;break&lt;br style=&quot;font-size: 26px;&quot;&gt;&lt;/div&gt;" style="rounded=0;whiteSpace=wrap;html=1;fontSize=26;fontFamily=Times New Roman;strokeWidth=1;" vertex="1" parent="1">
          <mxGeometry x="2360" y="800" width="480" height="120" as="geometry" />
        </mxCell>
        <mxCell id="nCA1nTuE7ENm7l3HEIyr-168" value="&lt;div style=&quot;font-size: 26px;&quot;&gt;sleep(1000)&lt;br style=&quot;font-size: 26px;&quot;&gt;&lt;/div&gt;" style="rounded=0;whiteSpace=wrap;html=1;fontSize=26;fontFamily=Times New Roman;strokeWidth=1;" vertex="1" parent="1">
          <mxGeometry x="2360" y="1160" width="480" height="120" as="geometry" />
        </mxCell>
        <mxCell id="nCA1nTuE7ENm7l3HEIyr-169" value="&lt;font style=&quot;font-size: 26px&quot;&gt;A&lt;font style=&quot;font-size: 26px&quot;&gt;2&lt;/font&gt;&lt;/font&gt;" style="shape=loopLimit;whiteSpace=wrap;html=1;rounded=0;strokeWidth=1;direction=west;fontFamily=Times New Roman;fontSize=26;size=40;" vertex="1" parent="1">
          <mxGeometry x="2360" y="1320" width="480" height="120" as="geometry" />
        </mxCell>
        <mxCell id="nCA1nTuE7ENm7l3HEIyr-170" value="&lt;font style=&quot;font-size: 26px&quot;&gt;A&lt;font style=&quot;font-size: 26px&quot;&gt;1&lt;/font&gt;&lt;/font&gt;" style="shape=loopLimit;whiteSpace=wrap;html=1;rounded=0;strokeWidth=1;direction=west;fontFamily=Times New Roman;fontSize=26;size=40;" vertex="1" parent="1">
          <mxGeometry x="2360" y="1480" width="480" height="120" as="geometry" />
        </mxCell>
        <mxCell id="nCA1nTuE7ENm7l3HEIyr-171" value="Выход&lt;br style=&quot;font-size: 26px&quot;&gt;ClientViewPairingThread.run()" style="rounded=1;whiteSpace=wrap;html=1;arcSize=50;fontFamily=Times New Roman;fontSize=26;strokeWidth=1;" vertex="1" parent="1">
          <mxGeometry x="2360" y="1640" width="480" height="120" as="geometry" />
        </mxCell>
        <mxCell id="nCA1nTuE7ENm7l3HEIyr-172" value="&lt;div style=&quot;font-size: 26px;&quot;&gt;clientView.isWaiting = false&lt;br style=&quot;font-size: 26px;&quot;&gt;&lt;/div&gt;" style="rounded=0;whiteSpace=wrap;html=1;fontSize=26;fontFamily=Times New Roman;strokeWidth=1;" vertex="1" parent="1">
          <mxGeometry x="1560" y="320" width="480" height="120" as="geometry" />
        </mxCell>
        <mxCell id="nCA1nTuE7ENm7l3HEIyr-173" value="&lt;div style=&quot;font-size: 26px;&quot;&gt;clientView.isPaired = true&lt;br style=&quot;font-size: 26px;&quot;&gt;&lt;/div&gt;" style="rounded=0;whiteSpace=wrap;html=1;fontSize=26;fontFamily=Times New Roman;strokeWidth=1;" vertex="1" parent="1">
          <mxGeometry x="1560" y="480" width="480" height="120" as="geometry" />
        </mxCell>
        <mxCell id="nCA1nTuE7ENm7l3HEIyr-174" value="&lt;div style=&quot;font-size: 26px;&quot;&gt;this.clientView.isPaired = true&lt;br style=&quot;font-size: 26px;&quot;&gt;&lt;/div&gt;" style="rounded=0;whiteSpace=wrap;html=1;fontSize=26;fontFamily=Times New Roman;strokeWidth=1;" vertex="1" parent="1">
          <mxGeometry x="1560" y="640" width="480" height="120" as="geometry" />
        </mxCell>
        <mxCell id="nCA1nTuE7ENm7l3HEIyr-175" value="&lt;div style=&quot;font-size: 26px;&quot;&gt;val message = Message(Message.MessageTypes.PAIRING)&lt;br style=&quot;font-size: 26px;&quot;&gt;&lt;/div&gt;" style="rounded=0;whiteSpace=wrap;html=1;fontSize=26;fontFamily=Times New Roman;strokeWidth=1;" vertex="1" parent="1">
          <mxGeometry x="1560" y="800" width="480" height="120" as="geometry" />
        </mxCell>
        <mxCell id="nCA1nTuE7ENm7l3HEIyr-176" value="&lt;div style=&quot;font-size: 26px;&quot;&gt;message.content = &quot;Your match&quot;&lt;br style=&quot;font-size: 26px;&quot;&gt;&lt;/div&gt;" style="rounded=0;whiteSpace=wrap;html=1;fontSize=26;fontFamily=Times New Roman;strokeWidth=1;" vertex="1" parent="1">
          <mxGeometry x="1560" y="960" width="480" height="120" as="geometry" />
        </mxCell>
        <mxCell id="nCA1nTuE7ENm7l3HEIyr-177" value="" style="group;fontSize=26;fontFamily=Times New Roman;" vertex="1" connectable="0" parent="1">
          <mxGeometry x="1560" y="1120" width="480" height="120" as="geometry" />
        </mxCell>
        <mxCell id="nCA1nTuE7ENm7l3HEIyr-178" value="&lt;font style=&quot;font-size: 26px;&quot;&gt;sendMessage(this.clientView, message)&lt;/font&gt;" style="rounded=0;whiteSpace=wrap;html=1;fontSize=26;fontFamily=Times New Roman;" vertex="1" parent="nCA1nTuE7ENm7l3HEIyr-177">
          <mxGeometry width="480" height="119.99999999999983" as="geometry" />
        </mxCell>
        <mxCell id="nCA1nTuE7ENm7l3HEIyr-179" value="" style="endArrow=none;html=1;rounded=0;edgeStyle=orthogonalEdgeStyle;fontSize=26;fontFamily=Times New Roman;" edge="1" parent="nCA1nTuE7ENm7l3HEIyr-177">
          <mxGeometry width="50" height="50" relative="1" as="geometry">
            <mxPoint x="26.666666666666664" y="119.99999999999983" as="sourcePoint" />
            <mxPoint x="26.666666666666664" as="targetPoint" />
          </mxGeometry>
        </mxCell>
        <mxCell id="nCA1nTuE7ENm7l3HEIyr-180" value="" style="endArrow=none;html=1;rounded=0;edgeStyle=orthogonalEdgeStyle;fontSize=26;fontFamily=Times New Roman;" edge="1" parent="nCA1nTuE7ENm7l3HEIyr-177">
          <mxGeometry width="50" height="50" relative="1" as="geometry">
            <mxPoint x="453.3333333333333" y="120" as="sourcePoint" />
            <mxPoint x="453.3333333333333" y="1.705302565824238e-13" as="targetPoint" />
          </mxGeometry>
        </mxCell>
        <mxCell id="nCA1nTuE7ENm7l3HEIyr-184" value="&lt;div style=&quot;font-size: 26px;&quot;&gt;val clientStartMessage = Message(Message.MessageTypes.START)&lt;br style=&quot;font-size: 26px;&quot;&gt;&lt;/div&gt;" style="rounded=0;whiteSpace=wrap;html=1;fontSize=26;fontFamily=Times New Roman;strokeWidth=1;" vertex="1" parent="1">
          <mxGeometry x="1560" y="1440" width="480" height="120" as="geometry" />
        </mxCell>
        <mxCell id="nCA1nTuE7ENm7l3HEIyr-185" value="clientStartMessage.content = PieceTeams.WHITE" style="rounded=0;whiteSpace=wrap;html=1;fontSize=26;fontFamily=Times New Roman;strokeWidth=1;" vertex="1" parent="1">
          <mxGeometry x="1560" y="1600" width="480" height="120" as="geometry" />
        </mxCell>
        <mxCell id="nCA1nTuE7ENm7l3HEIyr-186" value="1" style="ellipse;whiteSpace=wrap;html=1;aspect=fixed;rounded=0;fontFamily=Times New Roman;fontSize=26;strokeWidth=1;" vertex="1" parent="1">
          <mxGeometry x="940" y="1940" width="120" height="120" as="geometry" />
        </mxCell>
        <mxCell id="nCA1nTuE7ENm7l3HEIyr-187" value="1" style="ellipse;whiteSpace=wrap;html=1;aspect=fixed;rounded=0;fontFamily=Times New Roman;fontSize=26;strokeWidth=1;" vertex="1" parent="1">
          <mxGeometry x="1740" y="160" width="120" height="120" as="geometry" />
        </mxCell>
        <mxCell id="nCA1nTuE7ENm7l3HEIyr-188" value="2" style="ellipse;whiteSpace=wrap;html=1;aspect=fixed;rounded=0;fontFamily=Times New Roman;fontSize=26;strokeWidth=1;" vertex="1" parent="1">
          <mxGeometry x="1740" y="1920" width="120" height="120" as="geometry" />
        </mxCell>
        <mxCell id="nCA1nTuE7ENm7l3HEIyr-189" value="2" style="ellipse;whiteSpace=wrap;html=1;aspect=fixed;rounded=0;fontFamily=Times New Roman;fontSize=26;strokeWidth=1;" vertex="1" parent="1">
          <mxGeometry x="2540" y="160" width="120" height="120" as="geometry" />
        </mxCell>
        <mxCell id="nCA1nTuE7ENm7l3HEIyr-190" value="&lt;div style=&quot;font-size: 26px;&quot;&gt;this.clientView.isWaiting = false&lt;br style=&quot;font-size: 26px;&quot;&gt;&lt;/div&gt;" style="rounded=0;whiteSpace=wrap;html=1;fontSize=26;fontFamily=Times New Roman;strokeWidth=1;" vertex="1" parent="1">
          <mxGeometry x="760" y="1780" width="480" height="120" as="geometry" />
        </mxCell>
        <mxCell id="nCA1nTuE7ENm7l3HEIyr-191" value="&lt;div style=&quot;font-size: 26px;&quot;&gt;val pairClientStartMessage = Message(Message.MessageTypes.START)&lt;br style=&quot;font-size: 26px;&quot;&gt;&lt;/div&gt;" style="rounded=0;whiteSpace=wrap;html=1;fontSize=26;fontFamily=Times New Roman;strokeWidth=1;" vertex="1" parent="1">
          <mxGeometry x="1560" y="1760" width="480" height="120" as="geometry" />
        </mxCell>
        <mxCell id="nCA1nTuE7ENm7l3HEIyr-192" value="Нет" style="text;html=1;strokeColor=none;fillColor=none;align=center;verticalAlign=middle;whiteSpace=wrap;rounded=0;fontSize=26;fontFamily=Times New Roman;strokeWidth=1;" vertex="1" parent="1">
          <mxGeometry x="1240" y="1140" width="80" height="40" as="geometry" />
        </mxCell>
        <mxCell id="nCA1nTuE7ENm7l3HEIyr-193" value="" style="endArrow=openThin;html=1;fontFamily=Times New Roman;fontSize=26;endFill=0;exitX=1;exitY=0.5;exitDx=0;exitDy=0;rounded=0;edgeStyle=orthogonalEdgeStyle;entryX=0;entryY=0.5;entryDx=0;entryDy=0;" edge="1" parent="1" source="nCA1nTuE7ENm7l3HEIyr-144" target="nCA1nTuE7ENm7l3HEIyr-194">
          <mxGeometry width="50" height="50" relative="1" as="geometry">
            <mxPoint x="1430" y="300" as="sourcePoint" />
            <mxPoint x="1370" y="1180" as="targetPoint" />
            <Array as="points" />
          </mxGeometry>
        </mxCell>
        <mxCell id="nCA1nTuE7ENm7l3HEIyr-194" value="3" style="ellipse;whiteSpace=wrap;html=1;aspect=fixed;rounded=0;fontFamily=Times New Roman;fontSize=26;strokeWidth=1;" vertex="1" parent="1">
          <mxGeometry x="1360" y="1120" width="120" height="120" as="geometry" />
        </mxCell>
        <mxCell id="nCA1nTuE7ENm7l3HEIyr-195" value="Да" style="text;html=1;strokeColor=none;fillColor=none;align=center;verticalAlign=middle;whiteSpace=wrap;rounded=0;fontSize=26;fontFamily=Times New Roman;strokeWidth=1;" vertex="1" parent="1">
          <mxGeometry x="1000" y="1240" width="80" height="40" as="geometry" />
        </mxCell>
        <mxCell id="nCA1nTuE7ENm7l3HEIyr-196" value="3" style="ellipse;whiteSpace=wrap;html=1;aspect=fixed;rounded=0;fontFamily=Times New Roman;fontSize=26;strokeWidth=1;" vertex="1" parent="1">
          <mxGeometry x="2960" y="900" width="120" height="120" as="geometry" />
        </mxCell>
        <mxCell id="nCA1nTuE7ENm7l3HEIyr-197" value="" style="endArrow=openThin;html=1;fontFamily=Times New Roman;fontSize=26;endFill=0;exitX=0;exitY=0.5;exitDx=0;exitDy=0;rounded=0;edgeStyle=orthogonalEdgeStyle;" edge="1" parent="1" source="nCA1nTuE7ENm7l3HEIyr-196">
          <mxGeometry width="50" height="50" relative="1" as="geometry">
            <mxPoint x="2960" y="1120" as="sourcePoint" />
            <mxPoint x="2600" y="960" as="targetPoint" />
            <Array as="points" />
          </mxGeometry>
        </mxCell>
        <mxCell id="nCA1nTuE7ENm7l3HEIyr-198" value="" style="group;fontSize=26;fontFamily=Times New Roman;" vertex="1" connectable="0" parent="1">
          <mxGeometry x="1560" y="1280" width="480" height="120" as="geometry" />
        </mxCell>
        <mxCell id="nCA1nTuE7ENm7l3HEIyr-199" value="sendMessage(chosenPair, message)" style="rounded=0;whiteSpace=wrap;html=1;fontSize=26;fontFamily=Times New Roman;" vertex="1" parent="nCA1nTuE7ENm7l3HEIyr-198">
          <mxGeometry width="480" height="119.99999999999983" as="geometry" />
        </mxCell>
        <mxCell id="nCA1nTuE7ENm7l3HEIyr-200" value="" style="endArrow=none;html=1;rounded=0;edgeStyle=orthogonalEdgeStyle;fontSize=26;fontFamily=Times New Roman;" edge="1" parent="nCA1nTuE7ENm7l3HEIyr-198">
          <mxGeometry width="50" height="50" relative="1" as="geometry">
            <mxPoint x="26.666666666666664" y="119.99999999999983" as="sourcePoint" />
            <mxPoint x="26.666666666666664" as="targetPoint" />
          </mxGeometry>
        </mxCell>
        <mxCell id="nCA1nTuE7ENm7l3HEIyr-201" value="" style="endArrow=none;html=1;rounded=0;edgeStyle=orthogonalEdgeStyle;fontSize=26;fontFamily=Times New Roman;" edge="1" parent="nCA1nTuE7ENm7l3HEIyr-198">
          <mxGeometry width="50" height="50" relative="1" as="geometry">
            <mxPoint x="453.3333333333333" y="120" as="sourcePoint" />
            <mxPoint x="453.3333333333333" y="1.705302565824238e-13" as="targetPoint" />
          </mxGeometry>
        </mxCell>
        <mxCell id="nCA1nTuE7ENm7l3HEIyr-202" value="1" style="text;html=1;strokeColor=none;fillColor=none;align=center;verticalAlign=middle;whiteSpace=wrap;rounded=0;fontSize=26;fontFamily=Times New Roman;strokeWidth=1;" vertex="1" parent="1">
          <mxGeometry x="760" y="120" width="40" height="40" as="geometry" />
        </mxCell>
        <mxCell id="nCA1nTuE7ENm7l3HEIyr-203" value="2" style="text;html=1;strokeColor=none;fillColor=none;align=center;verticalAlign=middle;whiteSpace=wrap;rounded=0;fontSize=26;fontFamily=Times New Roman;strokeWidth=1;" vertex="1" parent="1">
          <mxGeometry x="760" y="280" width="40" height="40" as="geometry" />
        </mxCell>
        <mxCell id="nCA1nTuE7ENm7l3HEIyr-204" value="3" style="text;html=1;strokeColor=none;fillColor=none;align=center;verticalAlign=middle;whiteSpace=wrap;rounded=0;fontSize=26;fontFamily=Times New Roman;strokeWidth=1;" vertex="1" parent="1">
          <mxGeometry x="760" y="440" width="40" height="40" as="geometry" />
        </mxCell>
        <mxCell id="nCA1nTuE7ENm7l3HEIyr-205" value="4" style="text;html=1;strokeColor=none;fillColor=none;align=center;verticalAlign=middle;whiteSpace=wrap;rounded=0;fontSize=26;fontFamily=Times New Roman;strokeWidth=1;" vertex="1" parent="1">
          <mxGeometry x="760" y="600" width="40" height="40" as="geometry" />
        </mxCell>
        <mxCell id="nCA1nTuE7ENm7l3HEIyr-206" value="5" style="text;html=1;strokeColor=none;fillColor=none;align=center;verticalAlign=middle;whiteSpace=wrap;rounded=0;fontSize=26;fontFamily=Times New Roman;strokeWidth=1;" vertex="1" parent="1">
          <mxGeometry x="760" y="760" width="40" height="40" as="geometry" />
        </mxCell>
        <mxCell id="nCA1nTuE7ENm7l3HEIyr-207" value="6" style="text;html=1;strokeColor=none;fillColor=none;align=center;verticalAlign=middle;whiteSpace=wrap;rounded=0;fontSize=26;fontFamily=Times New Roman;strokeWidth=1;" vertex="1" parent="1">
          <mxGeometry x="760" y="920" width="40" height="40" as="geometry" />
        </mxCell>
        <mxCell id="nCA1nTuE7ENm7l3HEIyr-208" value="7" style="text;html=1;strokeColor=none;fillColor=none;align=center;verticalAlign=middle;whiteSpace=wrap;rounded=0;fontSize=26;fontFamily=Times New Roman;strokeWidth=1;" vertex="1" parent="1">
          <mxGeometry x="760" y="1120" width="40" height="40" as="geometry" />
        </mxCell>
        <mxCell id="nCA1nTuE7ENm7l3HEIyr-209" value="8" style="text;html=1;strokeColor=none;fillColor=none;align=center;verticalAlign=middle;whiteSpace=wrap;rounded=0;fontSize=26;fontFamily=Times New Roman;strokeWidth=1;" vertex="1" parent="1">
          <mxGeometry x="760" y="1260" width="40" height="40" as="geometry" />
        </mxCell>
        <mxCell id="nCA1nTuE7ENm7l3HEIyr-210" value="9" style="text;html=1;strokeColor=none;fillColor=none;align=center;verticalAlign=middle;whiteSpace=wrap;rounded=0;fontSize=26;fontFamily=Times New Roman;strokeWidth=1;" vertex="1" parent="1">
          <mxGeometry x="760" y="1420" width="40" height="40" as="geometry" />
        </mxCell>
        <mxCell id="nCA1nTuE7ENm7l3HEIyr-211" value="10" style="text;html=1;strokeColor=none;fillColor=none;align=center;verticalAlign=middle;whiteSpace=wrap;rounded=0;fontSize=26;fontFamily=Times New Roman;strokeWidth=1;" vertex="1" parent="1">
          <mxGeometry x="760" y="1580" width="40" height="40" as="geometry" />
        </mxCell>
        <mxCell id="nCA1nTuE7ENm7l3HEIyr-212" value="11" style="text;html=1;strokeColor=none;fillColor=none;align=center;verticalAlign=middle;whiteSpace=wrap;rounded=0;fontSize=26;fontFamily=Times New Roman;strokeWidth=1;" vertex="1" parent="1">
          <mxGeometry x="760" y="1740" width="40" height="40" as="geometry" />
        </mxCell>
        <mxCell id="nCA1nTuE7ENm7l3HEIyr-213" value="12" style="text;html=1;strokeColor=none;fillColor=none;align=center;verticalAlign=middle;whiteSpace=wrap;rounded=0;fontSize=26;fontFamily=Times New Roman;strokeWidth=1;" vertex="1" parent="1">
          <mxGeometry x="1560" y="280" width="40" height="40" as="geometry" />
        </mxCell>
        <mxCell id="nCA1nTuE7ENm7l3HEIyr-214" value="13" style="text;html=1;strokeColor=none;fillColor=none;align=center;verticalAlign=middle;whiteSpace=wrap;rounded=0;fontSize=26;fontFamily=Times New Roman;strokeWidth=1;" vertex="1" parent="1">
          <mxGeometry x="1560" y="440" width="40" height="40" as="geometry" />
        </mxCell>
        <mxCell id="nCA1nTuE7ENm7l3HEIyr-215" value="14" style="text;html=1;strokeColor=none;fillColor=none;align=center;verticalAlign=middle;whiteSpace=wrap;rounded=0;fontSize=26;fontFamily=Times New Roman;strokeWidth=1;" vertex="1" parent="1">
          <mxGeometry x="1560" y="600" width="40" height="40" as="geometry" />
        </mxCell>
        <mxCell id="nCA1nTuE7ENm7l3HEIyr-216" value="15" style="text;html=1;strokeColor=none;fillColor=none;align=center;verticalAlign=middle;whiteSpace=wrap;rounded=0;fontSize=26;fontFamily=Times New Roman;strokeWidth=1;" vertex="1" parent="1">
          <mxGeometry x="1560" y="760" width="40" height="40" as="geometry" />
        </mxCell>
        <mxCell id="nCA1nTuE7ENm7l3HEIyr-217" value="16" style="text;html=1;strokeColor=none;fillColor=none;align=center;verticalAlign=middle;whiteSpace=wrap;rounded=0;fontSize=26;fontFamily=Times New Roman;strokeWidth=1;" vertex="1" parent="1">
          <mxGeometry x="1560" y="920" width="40" height="40" as="geometry" />
        </mxCell>
        <mxCell id="nCA1nTuE7ENm7l3HEIyr-218" value="17" style="text;html=1;strokeColor=none;fillColor=none;align=center;verticalAlign=middle;whiteSpace=wrap;rounded=0;fontSize=26;fontFamily=Times New Roman;strokeWidth=1;" vertex="1" parent="1">
          <mxGeometry x="1560" y="1080" width="40" height="40" as="geometry" />
        </mxCell>
        <mxCell id="nCA1nTuE7ENm7l3HEIyr-219" value="18" style="text;html=1;strokeColor=none;fillColor=none;align=center;verticalAlign=middle;whiteSpace=wrap;rounded=0;fontSize=26;fontFamily=Times New Roman;strokeWidth=1;" vertex="1" parent="1">
          <mxGeometry x="1560" y="1240" width="40" height="40" as="geometry" />
        </mxCell>
        <mxCell id="nCA1nTuE7ENm7l3HEIyr-220" value="19" style="text;html=1;strokeColor=none;fillColor=none;align=center;verticalAlign=middle;whiteSpace=wrap;rounded=0;fontSize=26;fontFamily=Times New Roman;strokeWidth=1;" vertex="1" parent="1">
          <mxGeometry x="1560" y="1400" width="40" height="40" as="geometry" />
        </mxCell>
        <mxCell id="nCA1nTuE7ENm7l3HEIyr-221" value="20" style="text;html=1;strokeColor=none;fillColor=none;align=center;verticalAlign=middle;whiteSpace=wrap;rounded=0;fontSize=26;fontFamily=Times New Roman;strokeWidth=1;" vertex="1" parent="1">
          <mxGeometry x="1560" y="1560" width="40" height="40" as="geometry" />
        </mxCell>
        <mxCell id="nCA1nTuE7ENm7l3HEIyr-222" value="21" style="text;html=1;strokeColor=none;fillColor=none;align=center;verticalAlign=middle;whiteSpace=wrap;rounded=0;fontSize=26;fontFamily=Times New Roman;strokeWidth=1;" vertex="1" parent="1">
          <mxGeometry x="1560" y="1720" width="40" height="40" as="geometry" />
        </mxCell>
        <mxCell id="nCA1nTuE7ENm7l3HEIyr-223" value="22" style="text;html=1;strokeColor=none;fillColor=none;align=center;verticalAlign=middle;whiteSpace=wrap;rounded=0;fontSize=26;fontFamily=Times New Roman;strokeWidth=1;" vertex="1" parent="1">
          <mxGeometry x="2360" y="280" width="40" height="40" as="geometry" />
        </mxCell>
        <mxCell id="nCA1nTuE7ENm7l3HEIyr-224" value="23" style="text;html=1;strokeColor=none;fillColor=none;align=center;verticalAlign=middle;whiteSpace=wrap;rounded=0;fontSize=26;fontFamily=Times New Roman;strokeWidth=1;" vertex="1" parent="1">
          <mxGeometry x="2360" y="440" width="40" height="40" as="geometry" />
        </mxCell>
        <mxCell id="nCA1nTuE7ENm7l3HEIyr-225" value="24" style="text;html=1;strokeColor=none;fillColor=none;align=center;verticalAlign=middle;whiteSpace=wrap;rounded=0;fontSize=26;fontFamily=Times New Roman;strokeWidth=1;" vertex="1" parent="1">
          <mxGeometry x="2360" y="600" width="40" height="40" as="geometry" />
        </mxCell>
        <mxCell id="nCA1nTuE7ENm7l3HEIyr-226" value="25" style="text;html=1;strokeColor=none;fillColor=none;align=center;verticalAlign=middle;whiteSpace=wrap;rounded=0;fontSize=26;fontFamily=Times New Roman;strokeWidth=1;" vertex="1" parent="1">
          <mxGeometry x="2360" y="760" width="40" height="40" as="geometry" />
        </mxCell>
        <mxCell id="nCA1nTuE7ENm7l3HEIyr-227" value="26" style="text;html=1;strokeColor=none;fillColor=none;align=center;verticalAlign=middle;whiteSpace=wrap;rounded=0;fontSize=26;fontFamily=Times New Roman;strokeWidth=1;" vertex="1" parent="1">
          <mxGeometry x="2360" y="960" width="40" height="40" as="geometry" />
        </mxCell>
        <mxCell id="nCA1nTuE7ENm7l3HEIyr-228" value="27" style="text;html=1;strokeColor=none;fillColor=none;align=center;verticalAlign=middle;whiteSpace=wrap;rounded=0;fontSize=26;fontFamily=Times New Roman;strokeWidth=1;" vertex="1" parent="1">
          <mxGeometry x="2360" y="1120" width="40" height="40" as="geometry" />
        </mxCell>
        <mxCell id="nCA1nTuE7ENm7l3HEIyr-229" value="28" style="text;html=1;strokeColor=none;fillColor=none;align=center;verticalAlign=middle;whiteSpace=wrap;rounded=0;fontSize=26;fontFamily=Times New Roman;strokeWidth=1;" vertex="1" parent="1">
          <mxGeometry x="2360" y="1280" width="40" height="40" as="geometry" />
        </mxCell>
        <mxCell id="nCA1nTuE7ENm7l3HEIyr-230" value="29" style="text;html=1;strokeColor=none;fillColor=none;align=center;verticalAlign=middle;whiteSpace=wrap;rounded=0;fontSize=26;fontFamily=Times New Roman;strokeWidth=1;" vertex="1" parent="1">
          <mxGeometry x="2360" y="1440" width="40" height="40" as="geometry" />
        </mxCell>
        <mxCell id="nCA1nTuE7ENm7l3HEIyr-231" value="30" style="text;html=1;strokeColor=none;fillColor=none;align=center;verticalAlign=middle;whiteSpace=wrap;rounded=0;fontSize=26;fontFamily=Times New Roman;strokeWidth=1;" vertex="1" parent="1">
          <mxGeometry x="2360" y="1600" width="40" height="40" as="geometry" />
        </mxCell>
        <mxCell id="U5MXIK-24vMOK5HsXXuc-1" parent="0" />
        <mxCell id="U5MXIK-24vMOK5HsXXuc-10" style="vsdxID=56;edgeStyle=none;startArrow=none;endArrow=none;startSize=5;endSize=5;strokeColor=#000000;spacingTop=0;spacingBottom=0;spacingLeft=0;spacingRight=0;verticalAlign=middle;html=1;labelBackgroundColor=#ffffff;rounded=0;" parent="U5MXIK-24vMOK5HsXXuc-1" edge="1">
          <mxGeometry relative="1" as="geometry">
            <mxPoint as="offset" />
            <Array as="points" />
            <mxPoint x="120" y="40" as="sourcePoint" />
            <mxPoint x="3260" y="40" as="targetPoint" />
          </mxGeometry>
        </mxCell>
        <mxCell id="U5MXIK-24vMOK5HsXXuc-11" style="vsdxID=55;edgeStyle=none;startArrow=none;endArrow=none;startSize=5;endSize=5;strokeColor=#000000;spacingTop=0;spacingBottom=0;spacingLeft=0;spacingRight=0;verticalAlign=middle;html=1;labelBackgroundColor=#ffffff;rounded=0;" parent="U5MXIK-24vMOK5HsXXuc-1" edge="1">
          <mxGeometry relative="1" as="geometry">
            <mxPoint x="8" as="offset" />
            <Array as="points" />
            <mxPoint x="120" y="2300" as="sourcePoint" />
            <mxPoint x="120" y="40" as="targetPoint" />
          </mxGeometry>
        </mxCell>
        <mxCell id="U5MXIK-24vMOK5HsXXuc-12" style="vsdxID=54;edgeStyle=none;startArrow=none;endArrow=none;startSize=5;endSize=5;strokeColor=#000000;spacingTop=0;spacingBottom=0;spacingLeft=0;spacingRight=0;verticalAlign=middle;html=1;labelBackgroundColor=#ffffff;rounded=0;" parent="U5MXIK-24vMOK5HsXXuc-1" edge="1">
          <mxGeometry relative="1" as="geometry">
            <mxPoint as="offset" />
            <Array as="points" />
            <mxPoint x="120" y="2300" as="sourcePoint" />
            <mxPoint x="3260" y="2300" as="targetPoint" />
          </mxGeometry>
        </mxCell>
        <mxCell id="U5MXIK-24vMOK5HsXXuc-13" style="vsdxID=52;edgeStyle=none;startArrow=none;endArrow=none;startSize=5;endSize=5;strokeColor=#000000;spacingTop=0;spacingBottom=0;spacingLeft=0;spacingRight=0;verticalAlign=middle;html=1;labelBackgroundColor=#ffffff;rounded=0;" parent="U5MXIK-24vMOK5HsXXuc-1" edge="1">
          <mxGeometry relative="1" as="geometry">
            <mxPoint x="8" as="offset" />
            <Array as="points" />
            <mxPoint x="3260" y="2300" as="sourcePoint" />
            <mxPoint x="3260" y="40" as="targetPoint" />
          </mxGeometry>
        </mxCell>
        <mxCell id="U5MXIK-24vMOK5HsXXuc-90" value="Flowchart" parent="0" />
        <mxCell id="U5MXIK-24vMOK5HsXXuc-91" value="Блок-схема" parent="0" />
        <mxCell id="U5MXIK-24vMOK5HsXXuc-118" value="Connector" parent="0" />
        <mxCell id="flblZkYbyNQ9tiGkdh4v-10" value="&lt;p style=&quot;margin-left: 0 ; margin-right: 0 ; margin-top: 0px ; margin-bottom: 0px ; text-indent: 0 ; direction: ltr&quot;&gt;&lt;font style=&quot;font-family: &amp;quot;times new roman&amp;quot; ; color: rgb(0 , 0 , 0) ; direction: ltr ; letter-spacing: 0px ; line-height: 140% ; opacity: 1&quot; size=&quot;1&quot;&gt;&lt;i&gt;Руковод.&lt;/i&gt;&lt;/font&gt;&lt;font style=&quot;font-size: 14px ; font-family: &amp;quot;times new roman&amp;quot; ; color: #000000 ; direction: ltr ; letter-spacing: 0px ; line-height: 140% ; opacity: 1&quot;&gt;&lt;br&gt;&lt;/font&gt;&lt;/p&gt;" style="verticalAlign=middle;align=left;vsdxID=41;fillColor=none;gradientColor=none;shape=stencil(nZBLDoAgDERP0z3SIyjew0SURgSD+Lu9kMZoXLhwN9O+tukAlrNpJg1SzDH4QW/URgNYgZTkjA4UkwJUgGXng+6DX1zLfmoymdXo17xh5zmRJ6Q42BWCfc2oJfdAr+Yv+AP9Cb7OJ3H/2JG1HNGz/84klThPVCc=);strokeColor=none;labelBackgroundColor=none;rounded=0;html=1;whiteSpace=wrap;strokeWidth=1;" parent="U5MXIK-24vMOK5HsXXuc-118" vertex="1">
          <mxGeometry x="2560" y="2200" width="70" height="20" as="geometry" />
        </mxCell>
        <mxCell id="flblZkYbyNQ9tiGkdh4v-13" value="&lt;p style=&quot;margin-left: 0 ; margin-right: 0 ; margin-top: 0px ; margin-bottom: 0px ; text-indent: 0 ; direction: ltr&quot;&gt;&lt;font style=&quot;font-family: &amp;#34;times new roman&amp;#34; ; color: rgb(0 , 0 , 0) ; direction: ltr ; letter-spacing: 0px ; line-height: 140% ; opacity: 1&quot; size=&quot;1&quot;&gt;&lt;i&gt;Лист&lt;/i&gt;&lt;/font&gt;&lt;font style=&quot;font-size: 12px ; font-family: &amp;#34;times new roman&amp;#34; ; color: #000000 ; direction: ltr ; letter-spacing: 0px ; line-height: 140% ; opacity: 1&quot;&gt;&lt;br&gt;&lt;/font&gt;&lt;/p&gt;" style="verticalAlign=middle;align=center;vsdxID=45;fillColor=none;gradientColor=none;shape=stencil(nZBLDoAgDERP0z3SIyjew0SURgSD+Lu9kMZoXLhwN9O+tukAlrNpJg1SzDH4QW/URgNYgZTkjA4UkwJUgGXng+6DX1zLfmoymdXo17xh5zmRJ6Q42BWCfc2oJfdAr+Yv+AP9Cb7OJ3H/2JG1HNGz/84klThPVCc=);strokeColor=none;labelBackgroundColor=none;rounded=0;html=1;whiteSpace=wrap;strokeWidth=1;" parent="U5MXIK-24vMOK5HsXXuc-118" vertex="1">
          <mxGeometry x="2590" y="2160" width="40" height="20" as="geometry" />
        </mxCell>
        <mxCell id="flblZkYbyNQ9tiGkdh4v-15" value="&lt;p style=&quot;margin-left: 0 ; margin-right: 0 ; margin-top: 0px ; margin-bottom: 0px ; text-indent: 0 ; direction: ltr&quot;&gt;&lt;font style=&quot;font-family: &amp;#34;times new roman&amp;#34; ; color: rgb(0 , 0 , 0) ; direction: ltr ; letter-spacing: 0px ; line-height: 140% ; opacity: 1&quot; size=&quot;1&quot;&gt;&lt;i&gt;№ докум.&lt;/i&gt;&lt;/font&gt;&lt;font style=&quot;font-size: 12px ; font-family: &amp;#34;times new roman&amp;#34; ; color: #000000 ; direction: ltr ; letter-spacing: 0px ; line-height: 140% ; opacity: 1&quot;&gt;&lt;br&gt;&lt;/font&gt;&lt;/p&gt;" style="verticalAlign=middle;align=center;vsdxID=45;fillColor=none;gradientColor=none;shape=stencil(nZBLDoAgDERP0z3SIyjew0SURgSD+Lu9kMZoXLhwN9O+tukAlrNpJg1SzDH4QW/URgNYgZTkjA4UkwJUgGXng+6DX1zLfmoymdXo17xh5zmRJ6Q42BWCfc2oJfdAr+Yv+AP9Cb7OJ3H/2JG1HNGz/84klThPVCc=);strokeColor=none;labelBackgroundColor=none;rounded=0;html=1;whiteSpace=wrap;strokeWidth=1;" parent="U5MXIK-24vMOK5HsXXuc-118" vertex="1">
          <mxGeometry x="2630" y="2160" width="90" height="20" as="geometry" />
        </mxCell>
        <mxCell id="flblZkYbyNQ9tiGkdh4v-18" value="&lt;p style=&quot;margin-left: 0 ; margin-right: 0 ; margin-top: 0px ; margin-bottom: 0px ; text-indent: 0 ; direction: ltr&quot;&gt;&lt;font style=&quot;font-family: &amp;#34;times new roman&amp;#34; ; color: rgb(0 , 0 , 0) ; direction: ltr ; letter-spacing: 0px ; line-height: 140% ; opacity: 1&quot; size=&quot;1&quot;&gt;&lt;i&gt;Дата&lt;/i&gt;&lt;/font&gt;&lt;font style=&quot;font-size: 12px ; font-family: &amp;#34;times new roman&amp;#34; ; color: #000000 ; direction: ltr ; letter-spacing: 0px ; line-height: 140% ; opacity: 1&quot;&gt;&lt;br&gt;&lt;/font&gt;&lt;/p&gt;" style="verticalAlign=middle;align=center;vsdxID=45;fillColor=none;gradientColor=none;shape=stencil(nZBLDoAgDERP0z3SIyjew0SURgSD+Lu9kMZoXLhwN9O+tukAlrNpJg1SzDH4QW/URgNYgZTkjA4UkwJUgGXng+6DX1zLfmoymdXo17xh5zmRJ6Q42BWCfc2oJfdAr+Yv+AP9Cb7OJ3H/2JG1HNGz/84klThPVCc=);strokeColor=none;labelBackgroundColor=none;rounded=0;html=1;whiteSpace=wrap;strokeWidth=1;" parent="U5MXIK-24vMOK5HsXXuc-118" vertex="1">
          <mxGeometry x="2780" y="2160" width="40" height="20" as="geometry" />
        </mxCell>
        <mxCell id="flblZkYbyNQ9tiGkdh4v-20" value="&lt;p style=&quot;margin: 0px; text-indent: 0px; direction: ltr; font-size: 10px;&quot;&gt;&lt;font style=&quot;font-size: 10px; font-family: &amp;quot;times new roman&amp;quot;; color: rgb(0, 0, 0); direction: ltr; letter-spacing: 0px; line-height: 140%; opacity: 1;&quot;&gt;Красковский П.Н.&lt;/font&gt;&lt;/p&gt;" style="verticalAlign=middle;align=center;vsdxID=41;fillColor=none;gradientColor=none;shape=stencil(nZBLDoAgDERP0z3SIyjew0SURgSD+Lu9kMZoXLhwN9O+tukAlrNpJg1SzDH4QW/URgNYgZTkjA4UkwJUgGXng+6DX1zLfmoymdXo17xh5zmRJ6Q42BWCfc2oJfdAr+Yv+AP9Cb7OJ3H/2JG1HNGz/84klThPVCc=);strokeColor=none;labelBackgroundColor=none;rounded=0;html=1;whiteSpace=wrap;strokeWidth=1;fontSize=10;fontStyle=2" parent="U5MXIK-24vMOK5HsXXuc-118" vertex="1">
          <mxGeometry x="2630" y="2200" width="90" height="20" as="geometry" />
        </mxCell>
        <mxCell id="U5MXIK-24vMOK5HsXXuc-119" value="Выноска" parent="0" />
      </root>
    </mxGraphModel>
  </diagram>
</mxfile>
